<?xml version="1.0" encoding="UTF-8" standalone="no"?>
<svg width="66px" height="59px" viewBox="0 0 66 59" version="1.1" xmlns="http://www.w3.org/2000/svg" xmlns:xlink="http://www.w3.org/1999/xlink">
    <!-- Generator: Sketch 42 (36781) - http://www.bohemiancoding.com/sketch -->
    <title>iPhone SE</title>
    <desc>Created with Sketch.</desc>
    <defs></defs>
    <g id="Page-1" stroke="none" stroke-width="1" fill="none" fill-rule="evenodd">
        <g id="iPhone-SE" fill-rule="nonzero" fill="#FFFFFF">
            <g id="broken-link-3" transform="translate(4.000000, 1.000000)">
                <g id="Layer_1">
                    <path d="M56.6695049,1.33286719 C54.8958129,-0.444175781 52.0093801,-0.444289063 50.2353489,1.33286719 L38.605501,12.9854297 C33.8890721,10.5530547 27.9454854,11.31 23.9985458,15.264875 L15.4553606,23.8246328 C11.5084211,27.7792812 10.7527251,33.7345898 13.1803587,38.4601172 L1.4434425,50.2201836 C-0.330475634,51.9975664 -0.330475634,54.8896367 1.4434425,56.6669062 C2.33051462,57.5554844 3.49548928,57.9997734 4.66046394,57.9997734 C5.8254386,57.9997734 6.99063938,57.5554844 7.87748538,56.6669062 L19.6116881,44.9097852 C21.3657076,45.8175078 23.3227836,46.301332 25.3567407,46.301332 C28.7087563,46.301332 31.856924,44.9965586 34.2214698,42.6273945 C34.8136803,42.0340273 34.8136803,41.0719297 34.2214698,40.4785625 L29.9320702,36.1807852 C29.6477232,35.8958828 29.261961,35.7357031 28.859692,35.7357031 C28.4575361,35.7357031 28.0716608,35.8958828 27.7873138,36.1807852 C27.6056257,36.3627148 27.4057349,36.519043 27.1937466,36.6538477 C27.735306,35.0600937 27.3736257,33.2234648 26.1073489,31.9547148 C24.8410721,30.6860781 23.0080234,30.3236914 21.4173762,30.8663086 C21.551692,30.6539062 21.7079415,30.4535117 21.8895166,30.271582 L30.4325887,21.7118242 C30.5895166,21.5545898 30.7585419,21.4170664 30.9358207,21.296875 C30.3698402,22.901957 30.7260936,24.7636211 32.0052593,26.0453984 C32.8923314,26.9339766 34.057306,27.3782656 35.2222807,27.3782656 C35.7381754,27.3782656 36.2539571,27.2906992 36.7456569,27.1164727 C36.6243431,27.295457 36.4862963,27.4646992 36.330386,27.6209141 C36.046039,27.9058164 35.8861715,28.292332 35.8861715,28.6953867 C35.8861715,29.0983281 36.046039,29.484957 36.330386,29.7698594 L40.6198986,34.0676367 C41.2121092,34.6610039 42.1723314,34.6608906 42.7645419,34.0676367 C46.7114815,30.1129883 47.4671774,24.1576797 45.0395439,19.4321523 L56.6693918,7.77947656 C58.443423,6.00232031 58.443423,3.11036328 56.6695049,1.33286719 Z M28.7339688,39.2778945 L30.9197661,41.4679609 C29.3129513,42.6333984 27.3844795,43.2624492 25.3569669,43.2624492 C24.15423,43.2624492 22.9864288,43.0407578 21.9000312,42.6173125 L24.3630526,40.1494805 C24.6890058,40.1997773 25.0209513,40.2261719 25.357193,40.2261719 C26.5682963,40.2262852 27.7281832,39.895957 28.7339688,39.2778945 Z M21.8180624,34.1035469 C22.1136023,33.8074297 22.5019649,33.6592578 22.8904405,33.6592578 C23.2788031,33.6592578 23.6671657,33.8074297 23.9628187,34.1035469 C24.5541248,34.6960078 24.5541248,35.659918 23.9628187,36.2523789 L5.73284211,54.5179609 C5.14164912,55.1104219 4.17950487,55.1104219 3.58819883,54.5179609 C2.99689279,53.9255 2.99689279,52.9615898 3.58819883,52.3691289 L21.8180624,34.1035469 Z M28.2879454,19.5627656 L19.7448733,28.1225234 C18.5242729,29.3455078 17.8519025,30.9735859 17.8519025,32.7067891 C17.8519025,33.0436875 17.8782456,33.376168 17.9284444,33.7027578 L15.4685887,36.167418 C14.144538,32.7541406 14.8541053,28.7249531 17.5998908,25.9735781 L26.143076,17.4138203 C27.9957973,15.5574805 30.429423,14.6293672 32.8631618,14.6293672 C34.0365029,14.6293672 35.2093918,14.8460742 36.317384,15.2780156 L33.8554932,17.7449414 C31.8857544,17.4404414 29.8020507,18.0457031 28.2879454,19.5627656 Z M41.6068031,30.7588047 L39.4214581,28.569418 C40.0382027,27.561668 40.3678869,26.3996289 40.3678869,25.1858203 C40.3678869,24.8489219 40.3413177,24.5163281 40.291345,24.1897383 L42.7499571,21.7263242 C43.8981988,24.6857969 43.5189942,28.1075703 41.6068031,30.7588047 Z M54.5248616,5.63064453 L36.2947719,23.8963398 C35.7035789,24.4888008 34.7414347,24.4888008 34.1501287,23.8963398 C33.5588226,23.3038789 33.5588226,22.3397422 34.1501287,21.7472812 L52.3799922,3.48192578 C52.9714113,2.88946484 53.9335556,2.88935156 54.5248616,3.48192578 C55.1161676,4.07438672 55.1161676,5.03829687 54.5248616,5.63064453 Z" id="Shape"></path>
                    <path d="M47.6617544,45.3851133 L42.7289279,40.4426523 C42.1367173,39.8492852 41.1764951,39.8492852 40.5842846,40.4426523 C39.9920741,41.0360195 39.991961,41.9981172 40.5842846,42.5914844 L45.5171111,47.5339453 C45.8133294,47.8307422 46.2013528,47.9790273 46.5894893,47.9790273 C46.9775127,47.9790273 47.3657622,47.8306289 47.6618674,47.5339453 C48.2539649,46.9406914 48.254078,45.9784805 47.6617544,45.3851133 Z" id="Shape"></path>
                    <path d="M54.0156374,37.1369922 L46.4956491,36.0490391 C45.6669162,35.9293008 44.89754,36.5049961 44.777922,37.3358008 C44.6583041,38.1663789 45.2332164,38.936918 46.0620624,39.0568828 L53.5820507,40.1448359 C53.655653,40.1554844 53.728577,40.1606953 53.8007096,40.1606953 C54.5422729,40.1606953 55.1907875,39.6150195 55.2997778,38.8581875 C55.4193957,38.0274961 54.8444834,37.256957 54.0156374,37.1369922 Z" id="Shape"></path>
                    <path d="M40.2868226,53.4658047 L39.2009903,45.9312422 C39.0813723,45.1006641 38.3116569,44.5249688 37.4832632,44.6444805 C36.6543041,44.7645586 36.0793918,45.5348711 36.1990097,46.3655625 L37.2848421,53.900125 C37.3938324,54.656957 38.042347,55.2026328 38.7839103,55.2026328 C38.8560429,55.2026328 38.929193,55.1974219 39.0025692,55.1868867 C39.8316413,55.0669219 40.4065536,54.2964961 40.2868226,53.4658047 Z" id="Shape"></path>
                </g>
            </g>
        </g>
    </g>
</svg>