<?xml version="1.0" encoding="UTF-8"?>
<svg width="25px" height="26px" viewBox="0 0 25 26" version="1.1" xmlns="http://www.w3.org/2000/svg" xmlns:xlink="http://www.w3.org/1999/xlink">
    <!-- Generator: Sketch 41.2 (35397) - http://www.bohemiancoding.com/sketch -->
    <title>calendar_icon</title>
    <desc>Created with Sketch.</desc>
    <defs></defs>
    <g id="Page-1" stroke="none" stroke-width="1" fill="none" fill-rule="evenodd">
        <g id="savings_personal_info_step_1" transform="translate(-515.000000, -522.000000)" fill="#90969D">
            <g id="calendar_icon" transform="translate(515.000000, 522.000000)">
                <g id="HL-blue-theme">
                    <g id="HL_aboutyou-DL-check">
                        <g id="Group-2">
                            <path d="M23.4375,3.21875 L17.1875,3.21875 L17.1875,1.65625 C17.1875,1.44466 17.11019,1.261557 16.955566,1.106934 C16.800943,0.95231 16.61784,0.875 16.40625,0.875 C16.19466,0.875 16.011557,0.95231 15.856934,1.106934 C15.70231,1.261557 15.625,1.44466 15.625,1.65625 L15.625,3.21875 L9.375,3.21875 L9.375,1.65625 C9.375,1.44466 9.29769,1.261557 9.143066,1.106934 C8.988443,0.95231 8.80534,0.875 8.59375,0.875 C8.38216,0.875 8.199057,0.95231 8.044434,1.106934 C7.88981,1.261557 7.8125,1.44466 7.8125,1.65625 L7.8125,3.21875 L1.5625,3.21875 C1.123045,3.21875 0.752768,3.369302 0.45166,3.67041 C0.150552,3.971518 0,4.341795 0,4.78125 L0,24.3125 C0,24.735679 0.150552,25.101886 0.45166,25.411133 C0.752768,25.720379 1.123045,25.875 1.5625,25.875 L23.4375,25.875 C23.876955,25.875 24.247232,25.720379 24.54834,25.411133 C24.849448,25.101886 25,24.735679 25,24.3125 L25,4.78125 C25,4.341795 24.849448,3.971518 24.54834,3.67041 C24.247232,3.369302 23.876955,3.21875 23.4375,3.21875 L23.4375,3.21875 Z M23.4375,24.3125 L1.5625,24.3125 L1.5625,4.78125 L7.8125,4.78125 L7.8125,5.5625 C7.8125,5.77409 7.88981,5.957193 8.044434,6.111816 C8.199057,6.26644 8.38216,6.34375 8.59375,6.34375 C8.80534,6.34375 8.988443,6.26644 9.143066,6.111816 C9.29769,5.957193 9.375,5.77409 9.375,5.5625 L9.375,4.78125 L15.625,4.78125 L15.625,5.5625 C15.625,5.77409 15.70231,5.957193 15.856934,6.111816 C16.011557,6.26644 16.19466,6.34375 16.40625,6.34375 C16.61784,6.34375 16.800943,6.26644 16.955566,6.111816 C17.11019,5.957193 17.1875,5.77409 17.1875,5.5625 L17.1875,4.78125 L23.4375,4.78125 L23.4375,24.3125 Z M17.96875,13.375 L19.53125,13.375 C19.74284,13.375 19.925943,13.29769 20.080566,13.143066 C20.23519,12.988443 20.3125,12.80534 20.3125,12.59375 L20.3125,11.03125 C20.3125,10.81966 20.23519,10.636557 20.080566,10.481934 C19.925943,10.32731 19.74284,10.25 19.53125,10.25 L17.96875,10.25 C17.75716,10.25 17.574057,10.32731 17.419434,10.481934 C17.26481,10.636557 17.1875,10.81966 17.1875,11.03125 L17.1875,12.59375 C17.1875,12.80534 17.26481,12.988443 17.419434,13.143066 C17.574057,13.29769 17.75716,13.375 17.96875,13.375 L17.96875,13.375 Z M17.96875,19.625 L19.53125,19.625 C19.74284,19.625 19.925943,19.54769 20.080566,19.393066 C20.23519,19.238443 20.3125,19.05534 20.3125,18.84375 L20.3125,17.28125 C20.3125,17.06966 20.23519,16.886557 20.080566,16.731934 C19.925943,16.57731 19.74284,16.5 19.53125,16.5 L17.96875,16.5 C17.75716,16.5 17.574057,16.57731 17.419434,16.731934 C17.26481,16.886557 17.1875,17.06966 17.1875,17.28125 L17.1875,18.84375 C17.1875,19.05534 17.26481,19.238443 17.419434,19.393066 C17.574057,19.54769 17.75716,19.625 17.96875,19.625 L17.96875,19.625 Z M13.28125,16.5 L11.71875,16.5 C11.50716,16.5 11.324057,16.57731 11.169434,16.731934 C11.01481,16.886557 10.9375,17.06966 10.9375,17.28125 L10.9375,18.84375 C10.9375,19.05534 11.01481,19.238443 11.169434,19.393066 C11.324057,19.54769 11.50716,19.625 11.71875,19.625 L13.28125,19.625 C13.49284,19.625 13.675943,19.54769 13.830566,19.393066 C13.98519,19.238443 14.0625,19.05534 14.0625,18.84375 L14.0625,17.28125 C14.0625,17.06966 13.98519,16.886557 13.830566,16.731934 C13.675943,16.57731 13.49284,16.5 13.28125,16.5 L13.28125,16.5 Z M13.28125,10.25 L11.71875,10.25 C11.50716,10.25 11.324057,10.32731 11.169434,10.481934 C11.01481,10.636557 10.9375,10.81966 10.9375,11.03125 L10.9375,12.59375 C10.9375,12.80534 11.01481,12.988443 11.169434,13.143066 C11.324057,13.29769 11.50716,13.375 11.71875,13.375 L13.28125,13.375 C13.49284,13.375 13.675943,13.29769 13.830566,13.143066 C13.98519,12.988443 14.0625,12.80534 14.0625,12.59375 L14.0625,11.03125 C14.0625,10.81966 13.98519,10.636557 13.830566,10.481934 C13.675943,10.32731 13.49284,10.25 13.28125,10.25 L13.28125,10.25 Z M7.03125,10.25 L5.46875,10.25 C5.25716,10.25 5.074057,10.32731 4.919434,10.481934 C4.76481,10.636557 4.6875,10.81966 4.6875,11.03125 L4.6875,12.59375 C4.6875,12.80534 4.76481,12.988443 4.919434,13.143066 C5.074057,13.29769 5.25716,13.375 5.46875,13.375 L7.03125,13.375 C7.24284,13.375 7.425943,13.29769 7.580566,13.143066 C7.73519,12.988443 7.8125,12.80534 7.8125,12.59375 L7.8125,11.03125 C7.8125,10.81966 7.73519,10.636557 7.580566,10.481934 C7.425943,10.32731 7.24284,10.25 7.03125,10.25 L7.03125,10.25 Z M7.03125,16.5 L5.46875,16.5 C5.25716,16.5 5.074057,16.57731 4.919434,16.731934 C4.76481,16.886557 4.6875,17.06966 4.6875,17.28125 L4.6875,18.84375 C4.6875,19.05534 4.76481,19.238443 4.919434,19.393066 C5.074057,19.54769 5.25716,19.625 5.46875,19.625 L7.03125,19.625 C7.24284,19.625 7.425943,19.54769 7.580566,19.393066 C7.73519,19.238443 7.8125,19.05534 7.8125,18.84375 L7.8125,17.28125 C7.8125,17.06966 7.73519,16.886557 7.580566,16.731934 C7.425943,16.57731 7.24284,16.5 7.03125,16.5 L7.03125,16.5 Z" id="calendar_icon"></path>
                        </g>
                    </g>
                </g>
            </g>
        </g>
    </g>
</svg>