<?xml version="1.0" encoding="UTF-8"?>
<svg width="16px" height="16px" viewBox="0 0 16 16" version="1.1" xmlns="http://www.w3.org/2000/svg" xmlns:xlink="http://www.w3.org/1999/xlink">
    <!-- Generator: Sketch 41.2 (35397) - http://www.bohemiancoding.com/sketch -->
    <title>close - simple-line-icons</title>
    <desc>Created with Sketch.</desc>
    <defs></defs>
    <g id="Page-1" stroke="none" stroke-width="1" fill="none" fill-rule="evenodd" opacity="0.218353714">
        <g id="OAO_Product_Listing_Design_step_2" transform="translate(-1173.000000, -153.000000)" fill="#27323D">
            <path d="M1188.67343,153.956572 C1188.4295,153.712645 1188.1246,153.590684 1187.75871,153.590684 C1187.39282,153.590684 1187.08791,153.712645 1186.84398,153.956572 L1181.315,159.485557 L1175.78602,153.956572 C1175.54209,153.712645 1175.23718,153.590684 1174.87129,153.590684 C1174.5054,153.590684 1174.2005,153.712645 1173.95657,153.956572 C1173.71265,154.200499 1173.59068,154.505403 1173.59068,154.871294 C1173.59068,155.237184 1173.71265,155.542089 1173.95657,155.786016 L1179.48556,161.315 L1173.95657,166.843984 C1173.71265,167.087911 1173.59068,167.392816 1173.59068,167.758706 C1173.59068,168.124597 1173.71265,168.429501 1173.95657,168.673428 C1174.2005,168.917355 1174.5054,169.039316 1174.87129,169.039316 C1175.23718,169.039316 1175.54209,168.917355 1175.78602,168.673428 L1181.315,163.144443 L1186.84398,168.673428 C1187.08791,168.917355 1187.39282,169.039316 1187.75871,169.039316 C1188.1246,169.039316 1188.4295,168.917355 1188.67343,168.673428 C1188.91735,168.429501 1189.03932,168.124597 1189.03932,167.758706 C1189.03932,167.392816 1188.91735,167.087911 1188.67343,166.843984 L1183.14444,161.315 L1188.67343,155.786016 C1188.91735,155.542089 1189.03932,155.237184 1189.03932,154.871294 C1189.03932,154.505403 1188.91735,154.200499 1188.67343,153.956572 Z" id="close---simple-line-icons"></path>
        </g>
    </g>
</svg>