<?xml version="1.0" encoding="UTF-8"?>
<svg width="50px" height="37px" viewBox="0 0 50 37" version="1.1" xmlns="http://www.w3.org/2000/svg" xmlns:xlink="http://www.w3.org/1999/xlink">
    <!-- Generator: Sketch 41.2 (35397) - http://www.bohemiancoding.com/sketch -->
    <title>credit_card_icon</title>
    <desc>Created with Sketch.</desc>
    <defs></defs>
    <g id="Page-1" stroke="none" stroke-width="1" fill="none" fill-rule="evenodd">
        <g id="OAO_Product_Listing_Design_1" transform="translate(-200.000000, -2145.000000)" stroke="#FFFFFF">
            <g id="Product_Box-Copy-7" transform="translate(149.000000, 2104.000000)">
                <g id="Product_Title" transform="translate(38.000000, 25.000000)">
                    <g id="credit_card_icon" transform="translate(14.000000, 17.000000)">
                        <path d="M4.07082851,21 L8.53201043,21" id="Shape"></path>
                        <path d="M9.59154114,16.0483625 C9.59154114,16.4351987 9.27725087,16.7488076 8.88957416,16.7488076 L4.77279548,16.7488076 C4.38511877,16.7488076 4.07082851,16.4351987 4.07082851,16.0483625 L4.07082851,11.9405087 C4.07082851,11.5536725 4.38511877,11.2400636 4.77279548,11.2400636 L8.88957416,11.2400636 C9.27725087,11.2400636 9.59154114,11.5536725 9.59154114,11.9405087 L9.59154114,16.0483625 L9.59154114,16.0483625 Z" id="Shape"></path>
                        <path d="M36.8244916,29.054062 C36.8244916,30.4222337 35.7130439,31.5307154 34.3424015,31.5307154 C33.6717186,31.5307154 33.0632134,31.2652941 32.6165933,30.8336645 C32.1699174,31.2653498 31.5614122,31.5307154 30.8906735,31.5307154 C29.5200869,31.5307154 28.4086392,30.4222337 28.4086392,29.054062 C28.4086392,27.6864467 29.5200869,26.5773529 30.8906735,26.5773529 C31.5614122,26.5773529 32.1699174,26.8428299 32.6165933,27.2745151 C33.0632134,26.8427742 33.6717186,26.5773529 34.3424015,26.5773529 C35.7130439,26.5773529 36.8244916,27.6863911 36.8244916,29.054062 Z" id="Shape"></path>
                        <path d="M4.07082851,29 L16.6179027,29" id="Shape"></path>
                        <path d="M12.100956,21 L16.6179027,21" id="Shape"></path>
                        <path d="M20.1868482,21 L24.6480301,21" id="Shape"></path>
                        <path d="M28.2169757,21 L32.6781576,21" id="Shape"></path>
                        <path d="M40.8198146,18.0666773 L40.8198146,31.4634976 C40.8198146,33.3765342 39.2948153,34.9444118 37.3776224,34.9444118 L3.52511443,34.9444118 C1.60786573,34.9443561 0,33.3764785 0,31.463442 L0,10.6337679 C0,8.72073132 1.60786573,7.17806041 3.52511443,7.17806041 L30.0490716,7.17806041 C29.907429,7.84578696 29.8327042,8.47411765 29.8327042,9.15352941 C29.8327042,14.1859062 33.9064883,18.2633227 38.9498544,18.2633227 C39.5956105,18.2633227 40.2064021,18.1946025 40.8198146,18.0666773 Z" id="Shape"></path>
                        <path d="M48.0956677,9.14974563 C48.0956677,13.5377663 44.9878969,17.2008029 40.8484777,18.0666773 C40.2406417,18.1946582 39.6099421,18.2614308 38.964186,18.2614308 C33.9208198,18.2614308 29.8327042,14.1821781 29.8327042,9.14974563 C29.8327042,8.47033386 29.907429,7.80761526 30.0490716,7.17049285 C30.9546915,3.08957075 34.6017077,0.0380604134 38.964186,0.0380604134 C44.0075521,0.0380604134 48.0956677,4.1173132 48.0956677,9.14974563 Z" id="Shape"></path>
                        <path d="M38.9600036,9.22842607 C37.7977542,9.22842607 36.8556083,8.2881558 36.8556083,7.12842607 C36.8556083,5.96869634 37.79781,5.028593 38.9600036,5.028593 C40.1221415,5.028593 41.0643431,5.96875199 41.0643431,7.12842607" id="Shape"></path>
                        <path d="M38.9600036,9.23287758 C40.1221415,9.23287758 41.0643431,10.1729809 41.0643431,11.3327107 C41.0643431,12.4924404 40.1221415,13.432655 38.9600036,13.432655 C37.7976984,13.432655 36.8556083,12.4924404 36.8556083,11.3327107" id="Shape"></path>
                        <path d="M38,13.4101749 L38,14.9682035" id="Shape"></path>
                        <path d="M38,3.44992051 L38,4.61844197" id="Shape"></path>
                    </g>
                </g>
            </g>
        </g>
    </g>
</svg>