<?xml version="1.0" encoding="UTF-8"?>
<svg width="30px" height="30px" viewBox="0 0 30 30" version="1.1" xmlns="http://www.w3.org/2000/svg" xmlns:xlink="http://www.w3.org/1999/xlink">
    <!-- Generator: Sketch 41.2 (35397) - http://www.bohemiancoding.com/sketch -->
    <title>facebook-official - FontAwesome</title>
    <desc>Created with Sketch.</desc>
    <defs></defs>
    <g id="Page-1" stroke="none" stroke-width="1" fill="none" fill-rule="evenodd">
        <g id="02_OAO_Product_Listing_Design_step_2png" transform="translate(-390.000000, -604.000000)" fill="#FFFFFF">
            <g id="Group-9" transform="translate(315.000000, 592.000000)">
                <g id="fb_log_in">
                    <g id="Group-8" transform="translate(75.000000, 12.000000)">
                        <path d="M28.3398437,0 L1.66015625,0 C0.7421875,0 0,0.7421875 0,1.66015625 L0,28.3398438 C0,29.2578125 0.7421875,30 1.66015625,30 L16.015625,30 L16.015625,18.3789062 L12.109375,18.3789062 L12.109375,13.8476562 L16.015625,13.8476562 L16.015625,10.5078125 C16.015625,6.640625 18.3984375,4.53125 21.8554687,4.53125 C23.4960937,4.53125 24.921875,4.6484375 25.3320312,4.70703125 L25.3320312,8.75 L22.9492187,8.76953125 C21.0546875,8.76953125 20.703125,9.6484375 20.703125,10.9570312 L20.703125,13.8476562 L25.1757812,13.8476562 L24.5898437,18.3789062 L20.703125,18.3789062 L20.703125,30 L28.3398437,30 C29.2578125,30 30,29.2578125 30,28.3398438 L30,1.66015625 C30,0.7421875 29.2578125,0 28.3398437,0 Z" id="facebook-official---FontAwesome"></path>
                    </g>
                </g>
            </g>
        </g>
    </g>
</svg>