<?xml version="1.0" encoding="UTF-8"?>
<svg width="768px" height="98px" viewBox="0 0 768 98" version="1.1" xmlns="http://www.w3.org/2000/svg" xmlns:xlink="http://www.w3.org/1999/xlink" style="background: #FFFFFF;">
    <!-- Generator: Sketch 41.2 (35397) - http://www.bohemiancoding.com/sketch -->
    <title>emailer design-1 copy</title>
    <desc>Created with Sketch.</desc>
    <defs>
        <path d="M135.735043,75.8822359 L81.45716,75.8822359 L81.2035251,65.7551832 C81.2035251,64.742478 81.2035251,63.7297727 81.45716,62.9702437 C82.2180649,61.1980095 84.5007797,60.6916569 88.8125741,60.6916569 C94.3925434,60.9448332 99.9725128,60.9448332 105.806117,59.4257753 C112.146991,57.9067174 117.219691,54.6154253 120.26331,50.0582516 C124.575105,43.4756674 124.32147,35.3740253 123.560565,27.0192068 L118.487866,27.5255594 C119.24877,34.8676726 119.502405,41.9566095 115.951516,47.2733121 C113.415166,50.8177806 109.357007,53.3495437 104.284307,54.6154253 C99.4652428,55.8813069 94.3925434,55.6281306 89.0662091,55.6281306 C86.5298594,55.6281306 79.1744453,55.3749542 76.8917306,60.9448332 C76.1308257,62.4638911 76.1308257,64.2361253 76.1308257,65.7551832 L76.3844606,75.8822359 L21.5993073,75.8822359 C20.0774975,75.8822359 19.0629576,76.8949411 19.0629576,78.413999 L19.0629576,127.783381 C19.0629576,129.302439 20.0774975,130.315144 21.5993073,130.315144 L135.735043,130.315144 C137.256853,130.315144 138.271393,129.302439 138.271393,128.036557 L138.271393,78.413999 C138.271393,76.8949411 137.256853,75.8822359 135.735043,75.8822359 Z M133.198694,125.251618 L24.135657,125.251618 L24.135657,80.9457622 L133.198694,80.9457622 L133.198694,125.251618 Z" id="path-1"></path>
        <mask id="mask-2" maskContentUnits="userSpaceOnUse" maskUnits="objectBoundingBox" x="0" y="0" width="119.208436" height="103.295937" fill="white">
            <use xlink:href="#path-1"></use>
        </mask>
        <rect id="path-3" x="46.9171714" y="60.7893792" width="5.07269938" height="5.06352633"></rect>
        <mask id="mask-4" maskContentUnits="userSpaceOnUse" maskUnits="objectBoundingBox" x="0" y="0" width="5.07269938" height="5.06352633" fill="white">
            <use xlink:href="#path-3"></use>
        </mask>
        <rect id="path-5" x="55.9844622" y="69.85667" width="5.07269938" height="5.06352633"></rect>
        <mask id="mask-6" maskContentUnits="userSpaceOnUse" maskUnits="objectBoundingBox" x="0" y="0" width="5.07269938" height="5.06352633" fill="white">
            <use xlink:href="#path-5"></use>
        </mask>
        <rect id="path-7" x="65.051753" y="78.9239608" width="5.07269938" height="5.06352633"></rect>
        <mask id="mask-8" maskContentUnits="userSpaceOnUse" maskUnits="objectBoundingBox" x="0" y="0" width="5.07269938" height="5.06352633" fill="white">
            <use xlink:href="#path-7"></use>
        </mask>
        <rect id="path-9" x="73.5856738" y="87.4578816" width="5.07269938" height="5.06352633"></rect>
        <mask id="mask-10" maskContentUnits="userSpaceOnUse" maskUnits="objectBoundingBox" x="0" y="0" width="5.07269938" height="5.06352633" fill="white">
            <use xlink:href="#path-9"></use>
        </mask>
        <rect id="path-11" x="83.1863347" y="97.0585425" width="5.07269938" height="5.06352633"></rect>
        <mask id="mask-12" maskContentUnits="userSpaceOnUse" maskUnits="objectBoundingBox" x="0" y="0" width="5.07269938" height="5.06352633" fill="white">
            <use xlink:href="#path-11"></use>
        </mask>
        <rect id="path-13" x="91.7202555" y="105.592463" width="5.07269938" height="5.06352633"></rect>
        <mask id="mask-14" maskContentUnits="userSpaceOnUse" maskUnits="objectBoundingBox" x="0" y="0" width="5.07269938" height="5.06352633" fill="white">
            <use xlink:href="#path-13"></use>
        </mask>
        <rect id="path-15" x="100.787546" y="114.659754" width="5.07269938" height="5.06352633"></rect>
        <mask id="mask-16" maskContentUnits="userSpaceOnUse" maskUnits="objectBoundingBox" x="0" y="0" width="5.07269938" height="5.06352633" fill="white">
            <use xlink:href="#path-15"></use>
        </mask>
        <rect id="path-17" x="30.91607" y="58.655899" width="5.07269938" height="5.06352633"></rect>
        <mask id="mask-18" maskContentUnits="userSpaceOnUse" maskUnits="objectBoundingBox" x="0" y="0" width="5.07269938" height="5.06352633" fill="white">
            <use xlink:href="#path-17"></use>
        </mask>
        <rect id="path-19" x="39.4499907" y="67.7231898" width="5.07269938" height="5.06352633"></rect>
        <mask id="mask-20" maskContentUnits="userSpaceOnUse" maskUnits="objectBoundingBox" x="0" y="0" width="5.07269938" height="5.06352633" fill="white">
            <use xlink:href="#path-19"></use>
        </mask>
        <rect id="path-21" x="49.0506516" y="76.7904806" width="5.07269938" height="5.06352633"></rect>
        <mask id="mask-22" maskContentUnits="userSpaceOnUse" maskUnits="objectBoundingBox" x="0" y="0" width="5.07269938" height="5.06352633" fill="white">
            <use xlink:href="#path-21"></use>
        </mask>
        <rect id="path-23" x="57.5845724" y="85.8577714" width="5.07269938" height="5.06352633"></rect>
        <mask id="mask-24" maskContentUnits="userSpaceOnUse" maskUnits="objectBoundingBox" x="0" y="0" width="5.07269938" height="5.06352633" fill="white">
            <use xlink:href="#path-23"></use>
        </mask>
        <rect id="path-25" x="66.6518632" y="94.9250623" width="5.07269938" height="5.06352633"></rect>
        <mask id="mask-26" maskContentUnits="userSpaceOnUse" maskUnits="objectBoundingBox" x="0" y="0" width="5.07269938" height="5.06352633" fill="white">
            <use xlink:href="#path-25"></use>
        </mask>
        <rect id="path-27" x="75.719154" y="103.992353" width="5.07269938" height="5.06352633"></rect>
        <mask id="mask-28" maskContentUnits="userSpaceOnUse" maskUnits="objectBoundingBox" x="0" y="0" width="5.07269938" height="5.06352633" fill="white">
            <use xlink:href="#path-27"></use>
        </mask>
        <rect id="path-29" x="84.7864448" y="112.526274" width="5.07269938" height="5.06352633"></rect>
        <mask id="mask-30" maskContentUnits="userSpaceOnUse" maskUnits="objectBoundingBox" x="0" y="0" width="5.07269938" height="5.06352633" fill="white">
            <use xlink:href="#path-29"></use>
        </mask>
        <rect id="path-31" x="93.8537356" y="121.593565" width="5.07269938" height="5.06352633"></rect>
        <mask id="mask-32" maskContentUnits="userSpaceOnUse" maskUnits="objectBoundingBox" x="0" y="0" width="5.07269938" height="5.06352633" fill="white">
            <use xlink:href="#path-31"></use>
        </mask>
        <rect id="path-33" x="23.9822593" y="65.5897096" width="5.07269938" height="5.06352633"></rect>
        <mask id="mask-34" maskContentUnits="userSpaceOnUse" maskUnits="objectBoundingBox" x="0" y="0" width="5.07269938" height="5.06352633" fill="white">
            <use xlink:href="#path-33"></use>
        </mask>
        <rect id="path-35" x="32.5161801" y="74.6570004" width="5.07269938" height="5.06352633"></rect>
        <mask id="mask-36" maskContentUnits="userSpaceOnUse" maskUnits="objectBoundingBox" x="0" y="0" width="5.07269938" height="5.06352633" fill="white">
            <use xlink:href="#path-35"></use>
        </mask>
        <rect id="path-37" x="42.116841" y="83.7242913" width="5.07269938" height="5.06352633"></rect>
        <mask id="mask-38" maskContentUnits="userSpaceOnUse" maskUnits="objectBoundingBox" x="0" y="0" width="5.07269938" height="5.06352633" fill="white">
            <use xlink:href="#path-37"></use>
        </mask>
        <rect id="path-39" x="50.6507617" y="92.7915821" width="5.07269938" height="5.06352633"></rect>
        <mask id="mask-40" maskContentUnits="userSpaceOnUse" maskUnits="objectBoundingBox" x="0" y="0" width="5.07269938" height="5.06352633" fill="white">
            <use xlink:href="#path-39"></use>
        </mask>
        <rect id="path-41" x="59.7180526" y="101.858873" width="5.07269938" height="5.06352633"></rect>
        <mask id="mask-42" maskContentUnits="userSpaceOnUse" maskUnits="objectBoundingBox" x="0" y="0" width="5.07269938" height="5.06352633" fill="white">
            <use xlink:href="#path-41"></use>
        </mask>
        <rect id="path-43" x="68.7853434" y="110.926164" width="5.07269938" height="5.06352633"></rect>
        <mask id="mask-44" maskContentUnits="userSpaceOnUse" maskUnits="objectBoundingBox" x="0" y="0" width="5.07269938" height="5.06352633" fill="white">
            <use xlink:href="#path-43"></use>
        </mask>
        <rect id="path-45" x="77.8526342" y="119.993455" width="5.07269938" height="5.06352633"></rect>
        <mask id="mask-46" maskContentUnits="userSpaceOnUse" maskUnits="objectBoundingBox" x="0" y="0" width="5.07269938" height="5.06352633" fill="white">
            <use xlink:href="#path-45"></use>
        </mask>
        <rect id="path-47" x="86.919925" y="128.527375" width="5.07269938" height="5.06352633"></rect>
        <mask id="mask-48" maskContentUnits="userSpaceOnUse" maskUnits="objectBoundingBox" x="0" y="0" width="5.07269938" height="5.06352633" fill="white">
            <use xlink:href="#path-47"></use>
        </mask>
        <rect id="path-49" x="17.0484487" y="72.5235202" width="5.07269938" height="5.06352633"></rect>
        <mask id="mask-50" maskContentUnits="userSpaceOnUse" maskUnits="objectBoundingBox" x="0" y="0" width="5.07269938" height="5.06352633" fill="white">
            <use xlink:href="#path-49"></use>
        </mask>
        <rect id="path-51" x="25.5823695" y="81.5908111" width="5.07269938" height="5.06352633"></rect>
        <mask id="mask-52" maskContentUnits="userSpaceOnUse" maskUnits="objectBoundingBox" x="0" y="0" width="5.07269938" height="5.06352633" fill="white">
            <use xlink:href="#path-51"></use>
        </mask>
        <rect id="path-53" x="31.161045" y="104.010112" width="39.8206902" height="5.06352633"></rect>
        <mask id="mask-54" maskContentUnits="userSpaceOnUse" maskUnits="objectBoundingBox" x="0" y="0" width="39.8206902" height="5.06352633" fill="white">
            <use xlink:href="#path-53"></use>
        </mask>
    </defs>
    <g id="Page-1" stroke="none" stroke-width="1" fill="none" fill-rule="evenodd">
        <g id="emailer-design-1-copy">
            <g id="Group-11" transform="translate(107.000000, 33.000000)" stroke="#FFFFFF" fill="#044B8A">
                <path d="M34.6329121,13.9831165 C34.2241422,14.0611822 33.9010505,14.4591874 33.9083832,14.8756379 L33.9083832,19.3382451 L17.8572802,19.3382451 C17.8017077,19.3329792 17.7456501,19.3329792 17.6900812,19.3382451 C17.2813113,19.4163112 16.9582192,19.814316 16.9655522,20.2307665 L16.9655522,89.847438 C16.9655986,90.3147479 17.3903857,90.739913 17.8572802,90.7399594 L73.1444126,90.7399594 C73.6113071,90.739913 74.0360942,90.3147479 74.0361406,89.847438 L74.0361406,20.2307665 C74.0360942,19.7634566 73.6113071,19.3382915 73.1444126,19.3382451 L57.0933097,19.3382451 L57.0933097,14.8756379 C57.0932633,14.4083275 56.6684762,13.9831633 56.2015817,13.9831165 L34.8001111,13.9831165 C34.7722624,13.9818045 34.7443603,13.9818045 34.7165116,13.9831165 C34.6886629,13.9818045 34.6607608,13.9818045 34.6329121,13.9831165 Z M80.1110372,13.9831165 C79.7022673,14.0611822 79.3791756,14.4591874 79.3865082,14.8756379 L79.3865082,84.4923094 C79.3874,84.6592323 79.4363291,84.8256179 79.5258407,84.9664614 L83.0927525,90.32159 C83.4132458,90.8256789 84.2770501,90.8256789 84.5975434,90.32159 L88.1644552,84.9664614 C88.2539704,84.8256179 88.3028638,84.6592323 88.3037877,84.4923094 L88.3037877,14.8756379 C88.3037413,14.4083275 87.8789542,13.9831633 87.4120597,13.9831165 L80.2782362,13.9831165 C80.2226637,13.9778774 80.1666061,13.9778774 80.1110372,13.9831165 Z M35.691839,15.7681593 L55.3098538,15.7681593 L55.3098538,20.2307665 C55.3099001,20.6980764 55.7346872,21.1232415 56.2015817,21.1232879 L59.7684935,21.1232879 L59.7684935,26.4784165 L31.2331993,26.4784165 L31.2331993,21.1232879 L34.8001111,21.1232879 C35.2670056,21.1232415 35.6917927,20.6980764 35.691839,20.2307665 L35.691839,15.7681593 Z M81.1699641,15.7681593 L86.5203318,15.7681593 L86.5203318,22.9083308 L81.1699641,22.9083308 L81.1699641,15.7681593 Z M18.7490081,21.1232879 L29.4497434,21.1232879 L29.4497434,23.8008522 L22.3159199,23.8008522 C22.2603474,23.7955863 22.2042898,23.7955863 22.1487209,23.8008522 C21.739951,23.8789211 21.4168593,24.2769231 21.424192,24.6933736 L21.424192,85.3848308 C21.4242383,85.8521408 21.8490254,86.2773058 22.3159199,86.2773522 L68.6857729,86.2773522 C69.1526674,86.2773058 69.5774545,85.8521408 69.5775009,85.3848308 L69.5775009,24.6933736 C69.5774545,24.2260637 69.1526674,23.8008986 68.6857729,23.8008522 L61.5519494,23.8008522 L61.5519494,21.1232879 L72.2526847,21.1232879 L72.2526847,88.9549165 L18.7490081,88.9549165 L18.7490081,21.1232879 Z M81.1699641,24.6933736 L86.5203318,24.6933736 L86.5203318,82.7072665 L81.1699641,82.7072665 L81.1699641,24.6933736 Z M23.2076478,25.5858951 L29.4497434,25.5858951 L29.4497434,27.3709379 C29.4497898,27.8382479 29.8745769,28.2634129 30.3414714,28.2634594 L60.6602214,28.2634594 C61.1271159,28.2634129 61.551903,27.8382479 61.5519494,27.3709379 L61.5519494,25.5858951 L67.794045,25.5858951 L67.794045,84.4923094 L23.2076478,84.4923094 L23.2076478,25.5858951 Z M30.1742724,39.8662379 C29.7073645,39.9100518 29.3223717,40.3751099 29.3661439,40.8424332 C29.4099171,41.3097566 29.8745635,41.695092 30.3414714,41.6512808 L60.6602214,41.6512808 C61.1313329,41.6579747 61.5646494,41.2303364 61.5646494,40.7587594 C61.5646494,40.2871823 61.1313329,39.859569 60.6602214,39.8662379 L30.3414714,39.8662379 C30.2858989,39.8609721 30.2298413,39.8609721 30.1742724,39.8662379 Z M30.1742724,49.6839737 C29.7073645,49.7277875 29.3223717,50.1928456 29.3661439,50.660169 C29.4099171,51.1274923 29.8745635,51.5128277 30.3414714,51.4690165 L60.6602214,51.4690165 C61.1313329,51.4757104 61.5646494,51.0480722 61.5646494,50.5764951 C61.5646494,50.104918 61.1313329,49.6773047 60.6602214,49.6839737 L30.3414714,49.6839737 C30.2858989,49.6787078 30.2298413,49.6787078 30.1742724,49.6839737 Z M30.1742724,59.5017094 C29.7073645,59.5455232 29.3223717,60.0105814 29.3661439,60.4779047 C29.4099171,60.945228 29.8745635,61.3305634 30.3414714,61.2867522 L60.6602214,61.2867522 C61.1313329,61.2934461 61.5646494,60.8658079 61.5646494,60.3942308 C61.5646494,59.9226537 61.1313329,59.4950405 60.6602214,59.5017094 L30.3414714,59.5017094 C30.2858989,59.4964435 30.2298413,59.4964435 30.1742724,59.5017094 Z M30.1742724,69.3194451 C29.7073645,69.363259 29.3223717,69.8283171 29.3661439,70.2956404 C29.4099171,70.7629637 29.8745635,71.1482991 30.3414714,71.1044879 L60.6602214,71.1044879 C61.1313329,71.1111819 61.5646494,70.6835436 61.5646494,70.2119665 C61.5646494,69.7403894 61.1313329,69.3127762 60.6602214,69.3194451 L30.3414714,69.3194451 C30.2858989,69.3141792 30.2298413,69.3141792 30.1742724,69.3194451 Z M81.3650296,84.4923094 L86.3252663,84.4923094 L83.8451479,88.2297429 L81.3650296,84.4923094 Z" id="Shape-Copy" transform="translate(52.634609, 52.359573) rotate(-40.000000) translate(-52.634609, -52.359573) "></path>
            </g>
            <g id="noun_700370_cc-copy" transform="translate(272.900092, 80.184171) rotate(18.000000) translate(-272.900092, -80.184171) translate(244.900092, 50.184171)" stroke="#FFFFFF" stroke-width="1.3" fill="#044B8A">
                <g id="mobile_icon" transform="translate(-0.000000, -0.000000)">
                    <ellipse id="Oval" cx="29.5496606" cy="23.4652018" rx="1.2636368" ry="1.25534001"></ellipse>
                    <path d="M55.6000193,26.1690111 C55.3084108,25.8793172 55.3084108,25.2033649 55.3084108,24.430848 C55.4056136,23.0789434 55.4056136,21.2442156 53.5587599,20.2785695 C52.6839344,19.7957464 51.7119061,19.7957464 51.0314863,20.0854402 C50.9342834,20.0854402 50.9342834,20.1820049 50.8370806,20.1820049 C49.6706466,18.2507125 47.9209957,16.7056787 45.6853305,15.5469033 C43.5468683,14.4846925 40.241972,13.8087402 36.6454673,13.8087402 C34.507005,13.8087402 32.4657455,14.0018694 30.9105002,14.4846925 C29.9384719,13.9053048 28.8692408,13.5190463 27.605604,13.1327878 C26.5363729,12.7465294 25.272736,13.2293525 24.5923162,14.098434 C24.1063021,14.7743863 23.9118964,15.6434679 24.1063021,16.4159848 C24.3007077,16.9953725 24.4951134,17.6713248 24.6895191,18.2507125 C23.6202879,19.3129233 22.8426653,20.5682633 22.2594483,21.8236033 C21.870637,21.8236033 21.4818256,21.920168 20.9958115,22.0167326 C19.537769,22.2098618 18.954552,23.2720726 18.8573492,24.2377188 L18.8573492,28.196868 C18.8573492,29.3556434 19.7321747,30.3212896 20.8986087,30.5144188 L21.4818256,30.6109834 C21.6762313,30.6109834 21.9678398,30.7075481 22.1622455,30.7075481 C22.7454624,32.1560173 23.7174908,33.5079219 24.8839247,34.6666973 L24.8839247,34.8598266 L24.8839247,34.9563912 L24.8839247,35.246085 L24.4951134,38.0464589 C24.3979106,38.7224112 24.5923162,39.3983635 25.0783304,39.9777512 C25.5643445,40.4605743 26.2447644,40.8468328 26.9251842,40.8468328 L30.8132974,40.8468328 C31.3965144,40.8468328 31.8825286,40.7502682 32.2713399,40.3640097 L32.4657455,40.1708805 C32.8545569,39.784622 33.0489625,39.3983635 33.1461654,38.8189758 L33.1461654,38.529282 L33.1461654,38.529282 C35.1874248,38.529282 40.241972,38.4327174 41.7000145,38.3361528 L41.7000145,38.3361528 L41.7000145,38.6258466 C41.8944201,40.0743159 43.0608541,40.7502682 44.0328824,40.7502682 L46.0741419,40.7502682 L47.9209957,40.7502682 C48.6014155,40.7502682 49.2818353,40.4605743 49.7678495,39.8811866 C50.2538636,39.3017989 50.4482693,38.6258466 50.3510664,37.9498943 L50.0594579,35.9220374 C49.9622551,35.1495204 49.8650523,34.2804389 49.7678495,33.5079219 C51.7119061,30.9972419 52.5867315,27.7140449 52.1007174,24.6239772 C52.1007174,24.3342834 52.0035146,24.1411541 51.9063117,23.8514603 C51.8091089,23.3686372 51.7119061,22.9823787 51.8091089,22.4995557 C51.9063117,22.4995557 52.1007174,22.4995557 52.1979202,22.5961203 C52.6839344,22.8858141 52.7811372,23.2720726 52.6839344,24.5274126 C52.6839344,25.686188 52.5867315,27.0380926 53.6559627,28.1003034 C54.1419768,28.5831265 54.9195995,28.5831265 55.4056136,28.1003034 C56.0860335,27.4243511 56.0860335,26.6518342 55.6000193,26.1690111 Z M44.3244909,37.8533297 L44.3244909,37.4670712 C44.3244909,36.9842481 44.0328824,35.4392143 42.1860286,35.6323435 C41.6028116,35.6323435 35.1874248,35.8254727 33.1461654,35.8254727 L33.1461654,35.8254727 L32.757354,35.8254727 L32.3685427,35.8254727 L31.4937172,35.8254727 L31.0077031,36.6945543 C31.0077031,36.6945543 31.0077031,36.7911189 30.9105002,37.0808128 L30.9105002,37.3705066 C30.9105002,37.5636358 30.8132974,37.8533297 30.8132974,38.1430235 L26.9251842,38.1430235 L27.3139955,35.3426497 L27.3139955,35.1495204 L27.3139955,35.0529558 C27.3139955,34.763262 27.4111983,34.4735681 27.4111983,34.2804389 C27.4111983,33.990745 27.3139955,33.5079219 26.9251842,33.1216635 C25.6615474,31.9628881 24.7867219,30.7075481 24.2035049,29.1625142 C24.0090992,28.6796911 23.6202879,28.2934326 23.0370709,28.2934326 C22.6482596,28.2934326 22.1622455,28.196868 21.7734341,28.1003034 L21.3846228,28.0037388 L21.3846228,24.3342834 L21.3846228,24.3342834 C21.9678398,24.2377188 22.453854,24.2377188 23.1342738,24.1411541 C23.7174908,24.0445895 24.2035049,23.7548957 24.3979106,23.175508 C24.8839247,21.8236033 25.6615474,20.5682633 26.7307785,19.5060525 C27.2167927,19.1197941 27.3139955,18.5404064 27.1195898,17.9610187 C26.9251842,17.381631 26.6335757,16.4159848 26.43917,15.6434679 L26.43917,15.4503386 C26.5363729,15.353774 26.5363729,15.353774 26.7307785,15.353774 C27.9944153,15.7400325 29.0636465,16.2228556 29.9384719,16.7056787 C30.4244861,16.9953725 31.0077031,16.8988079 31.2021087,16.8022433 C32.5629484,16.4159848 34.4098022,16.126291 36.4510616,16.126291 C39.658755,16.126291 42.57484,16.7056787 44.4216937,17.5747602 C47.0461702,18.9266648 48.7958211,20.8579572 49.5734438,23.4652018 C49.5734438,23.5617664 49.5734438,23.5617664 49.6706466,23.6583311 L49.7678495,24.0445895 C49.7678495,24.2377188 49.8650523,24.430848 49.8650523,24.7205418 C50.2538636,27.2312219 49.476241,29.9350311 47.8237928,31.9628881 C47.5321843,32.3491465 47.4349815,32.735405 47.4349815,33.2182281 C47.5321843,34.1838743 47.72659,35.0529558 47.8237928,36.018602 L48.1154013,38.1430235 L46.2685475,38.1430235 L44.2272881,38.1430235 L44.2272881,38.1430235 L44.3244909,37.8533297 Z" id="Shape"></path>
                    <path d="M41.7972173,19.2163587 C40.1447692,18.9266648 38.7839296,18.8301002 37.3258871,18.8301002 L37.2286843,18.8301002 C35.8678446,18.8301002 34.507005,18.9266648 32.9517597,19.2163587 C32.5629484,19.3129233 32.2713399,19.4094879 32.0769342,19.6991818 C31.8825286,19.9888756 31.7853257,20.2785695 31.8825286,20.6648279 C32.0769342,21.2442156 32.4657455,21.6304741 33.1461654,21.6304741 L33.5349767,21.6304741 C36.0622503,21.147651 38.6867267,21.147651 41.1167975,21.6304741 C41.3112032,21.6304741 41.408406,21.7270387 41.5056088,21.7270387 C42.0888258,21.7270387 42.57484,21.3407803 42.7692456,20.7613926 C42.8664485,20.3751341 42.7692456,20.0854402 42.57484,19.7957464 C42.57484,19.4094879 42.2832315,19.2163587 41.7972173,19.2163587 Z" id="Shape"></path>
                    <path d="M37.4230899,6.27670007 C37.4230899,4.73166621 36.9370758,3.28319696 35.7706418,2.22098618 C34.6042078,1.06221078 33.0489625,0.482823083 31.4937172,0.482823083 L14.5804246,0.482823083 L6.22098118,0.482823083 C2.72167927,0.482823083 0.388811324,2.80037388 0.388811324,6.27670007 L0.388811324,41.5227851 L0.388811324,53.4967976 C0.388811324,55.138396 0.97202831,56.5868653 2.04125945,57.6490761 C3.11049059,58.7112869 4.66573589,59.2906746 6.22098118,59.2906746 L6.31818401,59.2906746 C13.6083963,59.1941099 21.3846228,59.1941099 31.5909201,59.2906746 C33.1461654,59.2906746 34.7014107,58.7112869 35.7706418,57.5525115 C36.8398729,56.4903007 37.4230899,55.0418314 37.4230899,53.4967976 L37.4230899,40.0743159 L35.1874248,40.0743159 L35.1874248,41.5227851 L35.1874248,41.5227851 L35.1874248,47.5097913 L2.62447644,47.5097913 L2.62447644,6.27670007 C2.62447644,4.05571389 3.98531607,2.70380926 6.22098118,2.70380926 L14.6776275,2.70380926 L31.5909201,2.70380926 C32.6601512,2.70380926 33.5349767,3.09006773 34.3125993,3.76602004 C34.7986135,4.24884313 35.2846276,5.02136006 35.2846276,6.18013546 L35.2846276,8.40112164 L35.2846276,9.27020319 L35.2846276,9.65646165 L35.2846276,10.5255432 L35.2846276,10.5255432 L35.2846276,11.8774478 L36.6454673,11.8774478 L37.5202927,11.8774478 L37.5202927,11.8774478 L37.5202927,11.8774478 L37.5202927,10.0427201 L37.5202927,8.7873801 C37.4230899,7.91829856 37.4230899,7.14578162 37.4230899,6.27670007 Z M35.1874248,49.8273421 L35.1874248,53.5933622 C35.1874248,54.5590083 34.8958163,55.4280899 34.2153965,56.1040422 C33.5349767,56.7799945 32.5629484,57.166253 31.5909201,57.166253 L6.31818401,57.166253 C5.24895287,57.166253 4.27692456,56.7799945 3.59650475,56.1040422 C2.91608493,55.4280899 2.62447644,54.5590083 2.62447644,53.4967976 L2.62447644,49.8273421 L35.1874248,49.8273421 Z" id="Shape"></path>
                    <path d="M18.954552,51.9517637 C18.0797266,51.9517637 17.3993067,52.627716 17.3993067,53.4967976 C17.3993067,54.3658791 18.0797266,55.0418314 18.954552,55.0418314 L18.954552,55.0418314 C19.8293775,55.0418314 20.5097973,54.3658791 20.5097973,53.4967976 C20.5097973,52.627716 19.8293775,51.9517637 18.954552,51.9517637 Z" id="Shape"></path>
                    <path d="M23.1342738,6.85608777 L14.7748303,6.85608777 C14.0944105,6.85608777 13.6083963,7.33891086 13.6083963,8.01486317 C13.6083963,8.69081549 14.0944105,9.17363857 14.7748303,9.17363857 L23.1342738,9.17363857 C23.8146936,9.17363857 24.3007077,8.69081549 24.3007077,8.01486317 C24.2035049,7.43547547 23.7174908,6.85608777 23.1342738,6.85608777 Z" id="Shape"></path>
                </g>
            </g>
            <g id="moniter-copy" transform="translate(-22.000000, 3.000000)" stroke-width="2.5" stroke="#FFFFFF" fill="#044B8A">
                <g id="Group">
                    <path d="M39.1379062,29.1616 C35.1245625,29.1616 31.857,32.4237333 31.857,36.4381333 C31.857,40.4456 35.1210937,43.7112 39.1379062,43.7112 C43.1477812,43.7112 46.4153437,40.4490667 46.4153437,36.4381333 C46.4153437,32.4272 43.1477812,29.1616 39.1379062,29.1616 Z M39.1379062,40.2410667 C37.0393125,40.2410667 35.32575,38.5354667 35.32575,36.4346667 C35.32575,34.3338667 37.0358437,32.6248 39.1379062,32.6248 C41.2399687,32.6248 42.9465937,34.3338667 42.9465937,36.4346667 C42.9465937,38.5354667 41.2399687,40.2410667 39.1379062,40.2410667 Z" id="Shape"></path>
                    <path d="M52.4544375,30.5205333 L56.2839375,25.844 L50.19975,19.7634667 L45.2810625,23.7882667 C44.8890938,23.6184 44.4867188,23.4693333 44.0843438,23.3376 L43.442625,16.9658667 L34.82625,16.9658667 L34.1845313,23.3376 C33.7821563,23.4693333 33.38325,23.6184 32.9878125,23.7882667 L28.069125,19.7634667 L21.991875,25.844 L25.821375,30.5205333 C25.5820313,31.0024 25.3669688,31.4946667 25.1796563,31.9973333 L19.1925938,32.5970667 L19.1925938,41.1909333 L25.1900625,41.7906667 C25.3739063,42.2933333 25.5855,42.7821333 25.8283125,43.2605333 L21.9988125,47.944 L28.0725938,54.0245333 L32.99475,49.9997333 C33.3867188,50.1696 33.7890938,50.3186667 34.1914688,50.4469333 L34.8331875,56.8186667 L43.4530313,56.8186667 L44.09475,50.4469333 C44.497125,50.3186667 44.8960313,50.1696 45.2914688,49.9997333 L50.2101563,54.0245333 L56.2943438,47.9474667 L52.461375,43.2605333 C52.7007188,42.7821333 52.9157813,42.2933333 53.099625,41.7906667 L59.0970938,41.1909333 L59.0970938,32.5970667 L53.1065625,31.9973333 C52.9123125,31.4946667 52.69725,30.9989333 52.4544375,30.5205333 Z M55.6144688,38.0536 L50.4252188,38.5666667 L50.1095625,39.7176 C49.839,40.7125333 49.4262188,41.6624 48.8885625,42.5325333 L48.2364375,43.5829333 L51.6115313,47.7048 L49.9708125,49.348 L45.7424063,45.8917333 L44.7225938,46.4256 C43.8935625,46.8624 43.0090313,47.1882667 42.0932813,47.3962667 L40.8722813,47.6701333 L40.306875,53.3450667 L37.9585313,53.3450667 L37.393125,47.6701333 L36.172125,47.3962667 C35.2598438,47.1882667 34.3753125,46.8624 33.5462813,46.4256 L32.5264688,45.8917333 L28.305,49.3445333 L26.6608125,47.7048 L30.039375,43.5794667 L29.38725,42.5290667 C28.8530625,41.6589333 28.4402813,40.7125333 28.16625,39.7141333 L27.8505938,38.5632 L22.6613438,38.0501333 L22.6613438,35.7274667 L27.8401875,35.2109333 L28.1558438,34.0634667 C28.4229375,33.0789333 28.8357188,32.1290667 29.3837813,31.2450667 L30.0324375,30.1912 L26.66775,26.0728 L28.305,24.4365333 L32.5334063,27.8928 L33.5532188,27.3589333 C34.3891875,26.9186667 35.2737188,26.5893333 36.1790625,26.3813333 L37.4000625,26.1074667 L37.9654688,20.4325333 L40.3138125,20.4325333 L40.8792188,26.1074667 L42.1002188,26.3813333 C43.0020938,26.5893333 43.8900938,26.9152 44.733,27.3554667 L45.7493438,27.8893333 L49.97775,24.4330667 L51.6184688,26.0728 L48.2364375,30.1946667 L48.8885625,31.2485333 C49.436625,32.1325333 49.8494063,33.0789333 50.1165,34.06 L50.4286875,35.2144 L55.6144688,35.7309333 L55.6144688,38.0536 Z" id="Shape"></path>
                    <path d="M83.6038125,34.4309333 C79.0007813,32.5277333 77.0409375,31.1514667 77.0409375,28.3989333 C77.0409375,26.2842667 78.574125,23.8506667 82.6499063,23.8506667 C86.038875,23.8506667 88.2068438,25.0154667 89.3168438,25.6498667 L90.6384375,22.1589333 C89.10525,21.2576 86.9338125,20.4117333 83.7599063,20.3077333 L83.7599063,15.1770667 L80.4784688,15.1770667 L80.4784688,20.5192 C75.6083438,21.3130667 72.4864688,24.6445333 72.4864688,29.0333333 C72.4864688,33.6336 75.8199375,36.0672 81.2173125,38.1818667 C85.1335313,39.7696 87.1974375,41.5653333 87.1974375,44.4773333 C87.1974375,47.4933333 84.6548438,49.66 80.9016563,49.66 C77.935875,49.66 75.1851563,48.6546667 73.2808125,47.3858667 L72.01125,50.9288 C73.8635625,52.2496 77.0374688,53.2029333 80.1073125,53.2549333 L80.1073125,58.5970667 L83.4407813,58.5970667 L83.4407813,53.0989333 C88.8936563,52.1976 91.8039375,48.2837333 91.8039375,44.1064 C91.8074063,39.4021333 89.0566875,36.6530667 83.6038125,34.4309333 Z" id="Shape"></path>
                    <path d="M78.046875,92.5669333 L78.046875,80.3746667 L32.953125,80.3746667 L32.953125,92.5669333 L28.9050937,92.5669333 C25.8838125,92.5669333 23.4140625,95.0386667 23.4140625,98.0546667 C23.4140625,101.074133 25.8872813,103.5424 28.9050937,103.5424 L82.0914375,103.5424 C85.1127187,103.5424 87.5824687,101.070667 87.5824687,98.0546667 C87.5824687,95.0352 85.1127187,92.5669333 82.0914375,92.5669333 L36.421875,92.5669333 L36.421875,83.8413333 L74.578125,83.8413333 L74.578125,92.5669333 L78.046875,92.5669333 Z M84.1171875,98.0581333 C84.1171875,99.1536 83.1910313,100.0792 82.0949063,100.0792 L28.9050937,100.0792 C27.8089687,100.0792 26.8828125,99.1536 26.8828125,98.0581333 C26.8828125,96.9626667 27.8089687,96.0370667 28.9050937,96.0370667 L82.0914375,96.0370667 C83.1910313,96.0336 84.1171875,96.9626667 84.1171875,98.0581333 Z" id="Shape"></path>
                    <path d="M104.0625,0.419466667 L6.9375,0.419466667 C3.121875,0.419466667 0,3.53946667 0,7.3528 L0,66.2861333 C0,70.0994667 3.121875,73.2194667 6.9375,73.2194667 L104.0625,73.2194667 C107.878125,73.2194667 111,70.0994667 111,66.2861333 L111,7.3528 C111,3.53946667 107.878125,0.419466667 104.0625,0.419466667 Z M107.53125,66.2861333 C107.53125,68.1962667 105.973781,69.7528 104.0625,69.7528 L6.9375,69.7528 C5.02621875,69.7528 3.46875,68.1962667 3.46875,66.2861333 L3.46875,7.3528 C3.46875,5.44266667 5.02621875,3.88613333 6.9375,3.88613333 L104.0625,3.88613333 C105.973781,3.88613333 107.53125,5.44266667 107.53125,7.3528 L107.53125,66.2861333 Z" id="Shape"></path>
                </g>
            </g>
            <g id="savings_icons-copy" transform="translate(596.543773, 83.516538) rotate(24.000000) translate(-596.543773, -83.516538) translate(558.543773, 49.516538)" stroke="#05549A">
                <path d="M60.7727821,29.2051037 C59.3163985,27.2087248 57.5952178,25.3454378 55.4768416,23.6152427" id="Shape"></path>
                <path d="M30.8264762,18.2335944 C29.8996867,16.5033993 29.3700926,14.5070204 29.3700926,12.5106414 C29.3700926,5.58986106 34.9308301,3.90798505e-14 41.8155528,3.90798505e-14 C48.7002755,3.90798505e-14 54.261013,5.58986106 54.261013,12.5106414 C54.261013,16.2372155 52.6722308,19.4314218 50.1566591,21.8270765" id="Shape"></path>
                <path d="M46.8578849,8.55616858 C46.8578849,8.55616858 46.4606894,6.55978963 42.3563355,6.55978963 C39.1787712,6.55978963 37.854786,8.28998472 37.854786,9.88708788 C37.854786,11.484191 39.7083652,12.5489265 42.3563355,12.5489265 C45.9310953,12.5489265 46.8578849,13.7467538 46.8578849,15.2107651 C46.8578849,17.207144 44.7395087,18.5380633 42.3563355,18.5380633 C39.9731622,18.5380633 38.1195831,17.207144 37.854786,16.5416844" id="Shape"></path>
                <path d="M40.8164849,5.24783171 L40.8164849,19.887944" id="Shape"></path>
                <ellipse id="Oval" cx="16.9880345" cy="35.4418254" rx="1.32398513" ry="1.3309193"></ellipse>
                <path d="M25.3462766,17.711432 C23.6250959,18.1107078 22.0363137,18.6430755 20.4475316,19.4416271 C13.2980119,17.711432 4.69210857,19.9739948 3.76531898,22.1034657 C2.97092791,23.8336608 6.67808626,27.4271429 9.193658,29.5566138 C8.00207139,31.8191766 7.20768031,34.2148313 6.81048478,36.8766699 C4.29491303,37.1428538 0.852551704,37.9414054 0.322957653,40.0708762 C-0.603831936,43.6643583 0.322957653,52.0491499 4.9569056,52.9807934 C6.94288329,53.3800692 9.193658,53.3800692 11.0472372,53.3800692 C12.7684178,55.5095401 14.886794,57.1066433 17.2699673,58.7037464 L15.1515911,67.8870896 L28.7886379,67.8870896 L30.6422171,62.9626882 C31.7014052,63.0957801 32.7605933,63.228872 33.8197814,63.228872 C35.540962,63.228872 37.3945412,62.8295963 39.1157219,62.5634124 L37.7917367,67.8870896 L50.766791,67.8870896 C50.766791,67.8870896 60.9614765,54.4448047 62.4178601,47.1247485 C63.3446497,44.8621857 64.0066423,42.466531 64.0066423,39.9377843" id="Shape"></path>
                <path d="M61.3508601,35.051668 C61.3508601,35.051668 70.4863575,35.5840357 69.9567634,29.0625311 C69.5595679,24.2712216 67.1763947,23.3395781 65.5876125,25.3359571 C64.2636274,27.0661522 65.5876125,31.8574616 71.14835,31.5912778 C76.7090876,31.3250939 75.1203054,24.2712216 75.1203054,24.2712216" id="Shape"></path>
                <path d="M30.6754301,23.3717387 C30.6754301,23.3717387 41.2673111,21.3753598 47.2252441,26.1666692" id="Shape"></path>
            </g>
            <path d="M480.27795,53 C464.488365,53 451.643413,65.8457501 451.643413,81.6353345 C451.643413,82.5309371 451.700885,83.4113734 451.785497,84.2846258 C448.257365,85.458807 446,87.5357748 446,90.007063 L446,112.24307 C446,116.095278 451.467805,119 458.717237,119 C463.927217,119 468.205675,117.494558 470.206013,115.219631 C470.690533,115.247569 471.179043,115.272314 471.68272,115.272314 C477.963911,115.272314 482.900102,113.089981 484.107808,110.002467 C498.092618,108.123458 508.913284,96.1238208 508.913284,81.6345363 C508.912486,65.8457501 496.067534,53 480.27795,53 Z M469.03742,112.243868 C469.03742,114.307266 464.798075,116.606139 458.716438,116.606139 C452.633206,116.606139 448.393861,114.307266 448.393861,112.243868 L448.393861,110.719269 C450.663998,112.389942 454.363746,113.441198 458.716438,113.441198 C463.067534,113.441198 466.767283,112.389942 469.03742,110.719269 L469.03742,112.243868 Z M469.03742,106.685066 C469.03742,108.748464 464.798075,111.046539 458.716438,111.046539 C452.633206,111.046539 448.393861,108.748464 448.393861,106.685066 L448.393861,105.159668 C450.663998,106.83114 454.363746,107.882396 458.716438,107.882396 C463.067534,107.882396 466.767283,106.83114 469.03742,105.159668 L469.03742,106.685066 Z M469.03742,101.126264 C469.03742,103.188864 464.798075,105.487736 458.716438,105.487736 C452.633206,105.487736 448.393861,103.188864 448.393861,101.126264 L448.393861,99.6008659 C450.663998,101.27154 454.363746,102.323593 458.716438,102.323593 C463.067534,102.323593 466.767283,101.27154 469.03742,99.6008659 L469.03742,101.126264 Z M469.03742,95.5666634 C469.03742,97.6260703 464.624063,99.9289343 458.716438,99.9289343 C452.633206,99.9289343 448.393861,97.6292632 448.393861,95.5666634 L448.393861,94.0420638 C450.663998,95.7119394 454.363746,96.763993 458.716438,96.763993 C463.067534,96.763993 466.767283,95.7119394 469.03742,94.0420638 L469.03742,95.5666634 Z M458.716438,94.3693338 C452.633206,94.3693338 448.393861,92.070461 448.393861,90.007063 C448.393861,87.9444633 452.633206,85.6447922 458.716438,85.6447922 C464.798075,85.6447922 469.03742,87.9444633 469.03742,90.007063 C469.03742,92.0672682 464.624063,94.3693338 458.716438,94.3693338 Z M482.003701,108.516182 C482.003701,110.578782 477.764356,112.878453 471.681123,112.878453 C471.576557,112.878453 471.478376,112.870471 471.375405,112.868874 C471.408132,112.662934 471.431281,112.455396 471.431281,112.243868 L471.431281,109.703933 C471.514295,109.706328 471.594916,109.713512 471.681123,109.713512 C476.033815,109.713512 479.733564,108.661458 482.003701,106.991582 L482.003701,108.516182 Z M482.003701,102.956582 C482.003701,105.01998 477.764356,107.318852 471.681123,107.318852 C471.595714,107.318852 471.514295,107.31087 471.431281,107.307677 L471.431281,104.147526 C471.514295,104.149122 471.596512,104.153911 471.681123,104.153911 C476.033815,104.153911 479.733564,103.102656 482.003701,101.431982 L482.003701,102.956582 Z M471.681922,101.759252 C471.598108,101.759252 471.51669,101.754463 471.432079,101.752866 L471.432079,93.0458855 C471.517488,93.0442891 471.595714,93.0347105 471.681922,93.0347105 C477.765154,93.0347105 482.004499,95.3343815 482.004499,97.3977795 C482.004499,99.4611775 477.765154,101.759252 471.681922,101.759252 Z M484.39836,107.546345 L484.39836,97.3977795 C484.39836,93.5455711 478.930555,90.6400513 471.681123,90.6400513 C471.59731,90.6400513 471.515892,90.6480335 471.431281,90.6480335 L471.431281,90.0078613 C471.431281,86.1556528 465.963475,83.2509313 458.71564,83.2509313 C457.078492,83.2509313 455.54112,83.4057859 454.12907,83.6795753 C454.074791,83.0042814 454.037274,82.3249964 454.037274,81.6361327 C454.037274,67.1668037 465.807823,55.3954574 480.277152,55.3954574 C494.746481,55.3954574 506.517029,67.1668037 506.517029,81.6361327 C506.517827,94.7021915 496.916042,105.563567 484.39836,107.546345 Z M481.475279,60.6764791 L479.08062,60.6764791 L479.08062,82.8318659 L495.828867,82.8318659 L495.828867,80.4372067 L481.475279,80.4372067 L481.475279,60.6764791 Z" id="Shape-Copy-2" stroke="#FFFFFF" stroke-width="1.3" fill="#044B8A"></path>
            <g id="credit_card_icon-copy" transform="translate(368.833075, 83.238025) rotate(-25.000000) translate(-368.833075, -83.238025) translate(334.333075, 58.238025)" stroke="#044B8A">
                <path d="M5.7759908,30 L12.1058437,30" id="Shape"></path>
                <path d="M13.6091838,22.9129129 C13.6091838,23.4652151 13.1632457,23.9129675 12.6131815,23.9129675 L6.77199316,23.9129675 C6.22192894,23.9129675 5.7759908,23.4652151 5.7759908,22.9129129 L5.7759908,17.0479597 C5.7759908,16.4956576 6.22192894,16.0479051 6.77199316,16.0479051 L12.6131815,16.0479051 C13.1632457,16.0479051 13.6091838,16.4956576 13.6091838,17.0479597 L13.6091838,22.9129129 L13.6091838,22.9129129 Z" id="Shape"></path>
                <path d="M52.2492963,41.4816897 C52.2492963,43.4350852 50.6722926,45.0177105 48.7275244,45.0177105 C47.7759101,45.0177105 46.9125182,44.6387575 46.2788208,44.0225021 C45.6450443,44.638837 44.7816523,45.0177105 43.8299589,45.0177105 C41.8852699,45.0177105 40.3082661,43.4350852 40.3082661,41.4816897 C40.3082661,39.5290887 41.8852699,37.9455894 43.8299589,37.9455894 C44.7816523,37.9455894 45.6450443,38.3246219 46.2788208,38.9409568 C46.9125182,38.3245424 47.7759101,37.9455894 48.7275244,37.9455894 C50.6722926,37.9455894 52.2492963,39.5290092 52.2492963,41.4816897 Z" id="Shape"></path>
                <path d="M17.1697261,30 L23.5787022,30" id="Shape"></path>
                <path d="M28.6425845,30 L34.9724375,30" id="Shape"></path>
                <path d="M40.0363198,30 L46.3661728,30" id="Shape"></path>
                <path d="M57.9181544,25.7945447 L57.9181544,44.9217409 C57.9181544,47.6530626 55.7543733,49.8915864 53.034119,49.8915864 L5.00169154,49.8915864 C2.28135812,49.891507 -1.13686838e-12,47.6529831 -1.13686838e-12,44.9216614 L-1.13686838e-12,15.1822716 C-1.13686838e-12,12.4509499 2.28135812,10.2484147 5.00169154,10.2484147 L42.6358322,10.2484147 C42.4348593,11.2017556 42.3288343,12.0988493 42.3288343,13.0688737 C42.3288343,20.2538068 48.1090186,26.0753036 55.2649174,26.0753036 C56.1811636,26.0753036 57.0477996,25.9771889 57.9181544,25.7945447 Z" id="Shape"></path>
                <path d="M68.2416698,13.0634714 C68.2416698,19.3284306 63.832136,24.5582999 57.9588237,25.7945447 C57.0963812,25.9772683 56.2014982,26.0726024 55.285252,26.0726024 C48.1293533,26.0726024 42.3288343,20.248484 42.3288343,13.0634714 C42.3288343,12.0934471 42.4348593,11.1472562 42.6358322,10.2376101 C43.9207923,4.41110834 49.0954471,0.0543404312 55.285252,0.0543404312 C62.4411508,0.0543404312 68.2416698,5.87845887 68.2416698,13.0634714 Z" id="Shape"></path>
                <path d="M55.2793178,13.1758068 C53.6302329,13.1758068 52.293447,11.8333439 52.293447,10.1775496 C52.293447,8.5217554 53.630312,7.17953086 55.2793178,7.17953086 C56.9282445,7.17953086 58.2651094,8.52183484 58.2651094,10.1775496" id="Shape"></path>
                <path d="M55.2793178,13.1821624 C56.9282445,13.1821624 58.2651094,14.5243869 58.2651094,16.1801812 C58.2651094,17.8359754 56.9282445,19.1783588 55.2793178,19.1783588 C53.6301537,19.1783588 52.293447,17.8359754 52.293447,16.1801812" id="Shape"></path>
                <path d="M53,19.146263 L53,21.3707251" id="Shape"></path>
            </g>
            <g id="Key-Board-Copy" transform="translate(722.841113, 55.841113) rotate(-28.000000) translate(-722.841113, -55.841113) translate(643.841113, -23.158887)" stroke="#FFFFFF" stroke-width="4" fill="#044B8A">
                <g id="Group-4" transform="translate(-0.000000, -0.000000)">
                    <use id="Shape" mask="url(#mask-2)" transform="translate(78.667175, 78.667175) rotate(-315.000000) translate(-78.667175, -78.667175) " xlink:href="#path-1"></use>
                    <use id="Rectangle-path" mask="url(#mask-4)" transform="translate(49.453521, 63.321142) rotate(-315.000000) translate(-49.453521, -63.321142) " xlink:href="#path-3"></use>
                    <use id="Rectangle-path" mask="url(#mask-6)" transform="translate(58.520812, 72.388433) rotate(-315.000000) translate(-58.520812, -72.388433) " xlink:href="#path-5"></use>
                    <use id="Rectangle-path" mask="url(#mask-8)" transform="translate(67.588103, 81.455724) rotate(-315.000000) translate(-67.588103, -81.455724) " xlink:href="#path-7"></use>
                    <use id="Rectangle-path" mask="url(#mask-10)" transform="translate(76.122024, 89.989645) rotate(-315.000000) translate(-76.122024, -89.989645) " xlink:href="#path-9"></use>
                    <use id="Rectangle-path" mask="url(#mask-12)" transform="translate(85.722684, 99.590306) rotate(-315.000000) translate(-85.722684, -99.590306) " xlink:href="#path-11"></use>
                    <use id="Rectangle-path" mask="url(#mask-14)" transform="translate(94.256605, 108.124226) rotate(-315.000000) translate(-94.256605, -108.124226) " xlink:href="#path-13"></use>
                    <use id="Rectangle-path" mask="url(#mask-16)" transform="translate(103.323896, 117.191517) rotate(-315.000000) translate(-103.323896, -117.191517) " xlink:href="#path-15"></use>
                    <use id="Rectangle-path" mask="url(#mask-18)" transform="translate(33.452420, 61.187662) rotate(-315.000000) translate(-33.452420, -61.187662) " xlink:href="#path-17"></use>
                    <use id="Rectangle-path" mask="url(#mask-20)" transform="translate(41.986340, 70.254953) rotate(-315.000000) translate(-41.986340, -70.254953) " xlink:href="#path-19"></use>
                    <use id="Rectangle-path" mask="url(#mask-22)" transform="translate(51.587001, 79.322244) rotate(-315.000000) translate(-51.587001, -79.322244) " xlink:href="#path-21"></use>
                    <use id="Rectangle-path" mask="url(#mask-24)" transform="translate(60.120922, 88.389535) rotate(-315.000000) translate(-60.120922, -88.389535) " xlink:href="#path-23"></use>
                    <use id="Rectangle-path" mask="url(#mask-26)" transform="translate(69.188213, 97.456825) rotate(-315.000000) translate(-69.188213, -97.456825) " xlink:href="#path-25"></use>
                    <use id="Rectangle-path" mask="url(#mask-28)" transform="translate(78.255504, 106.524116) rotate(-315.000000) translate(-78.255504, -106.524116) " xlink:href="#path-27"></use>
                    <use id="Rectangle-path" mask="url(#mask-30)" transform="translate(87.322795, 115.058037) rotate(-315.000000) translate(-87.322795, -115.058037) " xlink:href="#path-29"></use>
                    <use id="Rectangle-path" mask="url(#mask-32)" transform="translate(96.390085, 124.125328) rotate(-315.000000) translate(-96.390085, -124.125328) " xlink:href="#path-31"></use>
                    <use id="Rectangle-path" mask="url(#mask-34)" transform="translate(26.518609, 68.121473) rotate(-315.000000) translate(-26.518609, -68.121473) " xlink:href="#path-33"></use>
                    <use id="Rectangle-path" mask="url(#mask-36)" transform="translate(35.052530, 77.188764) rotate(-315.000000) translate(-35.052530, -77.188764) " xlink:href="#path-35"></use>
                    <use id="Rectangle-path" mask="url(#mask-38)" transform="translate(44.653191, 86.256054) rotate(-315.000000) translate(-44.653191, -86.256054) " xlink:href="#path-37"></use>
                    <use id="Rectangle-path" mask="url(#mask-40)" transform="translate(53.187111, 95.323345) rotate(-315.000000) translate(-53.187111, -95.323345) " xlink:href="#path-39"></use>
                    <use id="Rectangle-path" mask="url(#mask-42)" transform="translate(62.254402, 104.390636) rotate(-315.000000) translate(-62.254402, -104.390636) " xlink:href="#path-41"></use>
                    <use id="Rectangle-path" mask="url(#mask-44)" transform="translate(71.321693, 113.457927) rotate(-315.000000) translate(-71.321693, -113.457927) " xlink:href="#path-43"></use>
                    <use id="Rectangle-path" mask="url(#mask-46)" transform="translate(80.388984, 122.525218) rotate(-315.000000) translate(-80.388984, -122.525218) " xlink:href="#path-45"></use>
                    <use id="Rectangle-path" mask="url(#mask-48)" transform="translate(89.456275, 131.059138) rotate(-315.000000) translate(-89.456275, -131.059138) " xlink:href="#path-47"></use>
                    <use id="Rectangle-path" mask="url(#mask-50)" transform="translate(19.584798, 75.055283) rotate(-315.000000) translate(-19.584798, -75.055283) " xlink:href="#path-49"></use>
                    <use id="Rectangle-path" mask="url(#mask-52)" transform="translate(28.118719, 84.122574) rotate(-315.000000) translate(-28.118719, -84.122574) " xlink:href="#path-51"></use>
                    <use id="Rectangle-path" mask="url(#mask-54)" transform="translate(51.071390, 106.541875) rotate(-315.000000) translate(-51.071390, -106.541875) " xlink:href="#path-53"></use>
                </g>
            </g>
        </g>
    </g>
</svg>