<?xml version="1.0" encoding="UTF-8"?>
<svg width="42px" height="50px" viewBox="0 0 42 50" version="1.1" xmlns="http://www.w3.org/2000/svg" xmlns:xlink="http://www.w3.org/1999/xlink">
    <!-- Generator: Sketch 41.2 (35397) - http://www.bohemiancoding.com/sketch -->
    <title>home_loan_icon</title>
    <desc>Created with Sketch.</desc>
    <defs></defs>
    <g id="Page-1" stroke="none" stroke-width="1" fill="none" fill-rule="evenodd">
        <g id="OAO_Product_Listing_Design_1" transform="translate(-203.000000, -1353.000000)" stroke="#044B8A" fill="#FFFFFF">
            <g id="Product_Box-Copy-5" transform="translate(149.000000, 1315.000000)">
                <g id="Product_Title" transform="translate(38.000000, 25.000000)">
                    <path d="M53.7984042,35.4555932 C52.9255296,35.4414084 52.1048349,35.768673 51.51971,36.3532913 L46.5448817,41.3271064 C45.9602634,39.9805592 44.6187823,39.0357471 43.0589558,39.0357471 L27.9531077,39.0357471 C26.9383846,39.0357471 25.9844537,39.4308964 25.2665991,40.1482443 L17.2967419,48.1181015 C16.901086,48.5137574 16.901086,49.1551151 17.2967419,49.550771 C17.4943166,49.7488522 17.7536966,49.8476396 18.0130767,49.8476396 C18.2724567,49.8476396 18.5318367,49.7488522 18.7294114,49.550771 L26.698762,41.5814204 C27.0336257,41.2470633 27.4789285,41.0626603 27.9526011,41.0626603 L43.0589558,41.0626603 C44.036697,41.0626603 44.8320616,41.8580249 44.8320616,42.8357661 C44.8320616,43.8135073 44.036697,44.6088719 43.0589558,44.6088719 L34.241554,44.6088719 C33.6822658,44.6088719 33.2283507,45.0627869 33.2283507,45.6220752 C33.2283507,46.1813634 33.6822658,46.6352785 34.241554,46.6352785 L43.0594624,46.6352785 C44.7104772,46.6352785 46.1147769,45.5749612 46.6375898,44.101257 L52.952886,37.7864674 C53.1514739,37.587373 53.4554349,37.4870658 53.7649685,37.4814932 C54.1074312,37.4875724 54.4281101,37.6223285 54.6677326,37.8624577 C54.9068486,38.1020802 55.0385651,38.4197195 55.0385651,38.7581294 C55.0385651,39.0965393 54.9068486,39.4141785 54.6677326,39.6538011 L42.5614729,51.7595542 C42.3218504,51.9991768 42.0037045,52.1303866 41.6652946,52.1303866 L26.3699775,52.1303866 C26.1014786,52.1303866 25.8436184,52.2372795 25.6536428,52.4272552 L17.8109426,60.270462 C17.4152867,60.6661178 17.4152867,61.3074755 17.8109426,61.7031314 C18.0090238,61.9012127 18.2678973,62 18.5272773,62 C18.7866574,62 19.0460374,61.9012127 19.2436121,61.7031314 L26.7899503,54.1567932 L41.6658012,54.1567932 C42.5452617,54.1567932 43.3720356,53.8143305 43.9941424,53.1927303 L56.1009087,41.085964 C56.7230155,40.4638571 57.0654783,39.6375898 57.0654783,38.7576228 C57.0654783,37.8776557 56.7230155,37.0513884 56.1009087,36.4292816 C55.4869075,35.8152804 54.6692524,35.469778 53.7984042,35.4555932 Z M19.0435044,33.189564 L24.5538106,33.189564 L24.5538106,37.3350853 C24.5538106,37.8943736 25.0077257,38.3482886 25.5670139,38.3482886 C26.1263021,38.3482886 26.5802172,37.8943736 26.5802172,37.3350853 L26.5802172,32.1763607 C26.5802172,31.6170725 26.1263021,31.1631574 25.5670139,31.1631574 L21.49343,31.1631574 L26.345154,26.3225786 C26.5356363,26.132603 26.6425292,25.8742361 26.6425292,25.6052307 L26.6425292,18.6252731 L28.6689358,18.6252731 L28.6689358,21.5620429 C28.6689358,21.9718836 28.9156508,22.3406896 29.2935757,22.4982427 C29.6725137,22.6547826 30.1076845,22.569167 30.3974607,22.2793908 L36.2436437,16.4458728 L50.926986,31.1631574 L47.4126904,31.1631574 C46.8534021,31.1631574 46.3994871,31.6170725 46.3994871,32.1763607 L46.3994871,37.3350853 C46.3994871,37.8943736 46.8534021,38.3482886 47.4126904,38.3482886 C47.9719786,38.3482886 48.4258937,37.8943736 48.4258937,37.3350853 L48.4258937,33.189564 L53.368806,33.189564 C53.7786467,33.189564 54.1479593,32.9433556 54.3044993,32.5649242 C54.4615458,32.1864927 54.3754235,31.7513219 54.0861539,31.4605326 L36.9630181,14.2973752 C36.7730425,14.1073996 36.5156888,14.0005066 36.2466833,14 L36.2456701,14 C35.9771713,14 35.7198176,14.1063863 35.529842,14.2958554 L30.6953424,19.1192097 L30.6953424,17.6120698 C30.6953424,17.0527816 30.2414274,16.5988665 29.6821391,16.5988665 L25.6293259,16.5988665 C25.0700377,16.5988665 24.6161226,17.0527816 24.6161226,17.6120698 L24.6161226,25.1847513 L18.3281829,31.4590128 C18.0379001,31.7487889 17.9507647,32.1849729 18.1073046,32.563911 C18.2638445,32.942849 18.6336637,33.189564 19.0435044,33.189564 Z M40.2133743,37.841687 C40.7726625,37.841687 41.2265776,37.3877719 41.2265776,36.8284837 L41.2265776,26.8712282 C41.2265776,26.31194 40.7726625,25.8580249 40.2133743,25.8580249 L33.3524681,25.8580249 C32.7931799,25.8580249 32.3392648,26.31194 32.3392648,26.8712282 C32.3392648,27.4305164 32.7931799,27.8844315 33.3524681,27.8844315 L39.200171,27.8844315 L39.200171,36.8279771 C39.200171,37.3877719 39.6535795,37.841687 40.2133743,37.841687 Z M32.3392648,32.1029035 L32.3392648,36.8279771 C32.3392648,37.3872653 32.7931799,37.8411804 33.3524681,37.8411804 C33.9117563,37.8411804 34.3656714,37.3872653 34.3656714,36.8279771 L34.3656714,32.1029035 C34.3656714,31.5436152 33.9117563,31.0897002 33.3524681,31.0897002 C32.7931799,31.0897002 32.3392648,31.5436152 32.3392648,32.1029035 Z" id="home_loan_icon"></path>
                </g>
            </g>
        </g>
    </g>
</svg>