<?xml version="1.0" encoding="UTF-8"?>
<svg width="34px" height="31px" viewBox="0 0 34 31" version="1.1" xmlns="http://www.w3.org/2000/svg" xmlns:xlink="http://www.w3.org/1999/xlink">
    <!-- Generator: Sketch 41.2 (35397) - http://www.bohemiancoding.com/sketch -->
    <title>info</title>
    <desc>Created with Sketch.</desc>
    <defs></defs>
    <g id="Page-1" stroke="none" stroke-width="1" fill="none" fill-rule="evenodd">
        <g id="15_Accont_genarated_popup-without_ID_check" transform="translate(-517.000000, -553.000000)" fill="#EFAE28">
            <g id="Group-2" transform="translate(215.000000, 116.000000)">
                <g id="info" transform="translate(302.000000, 437.000000)">
                    <path d="M30.6755556,30.6597561 L3.32444444,30.6597561 C2.11555556,30.6597561 1.05777778,30.054878 0.453333333,28.9963415 C-0.151111111,27.9756098 -0.151111111,26.7280488 0.453333333,25.7073171 L14.1288889,1.96585366 C14.7333333,0.945121951 15.7911111,0.302439024 17,0.302439024 L17,0.302439024 C18.2088889,0.302439024 19.2666667,0.907317073 19.8711111,1.96585366 L33.5466667,25.7073171 C34.1511111,26.7280488 34.1511111,27.9756098 33.5466667,28.9963415 C32.9422222,30.054878 31.8844444,30.6597561 30.6755556,30.6597561 Z M2.60666667,26.954878 C2.38,27.3329268 2.53111111,27.6731707 2.60666667,27.7865854 C2.68222222,27.9 2.90888889,28.202439 3.32444444,28.202439 L30.7133333,28.202439 C31.1288889,28.202439 31.3555556,27.9 31.4311111,27.7865854 C31.5066667,27.6731707 31.6577778,27.3329268 31.4311111,26.954878 L17.7177778,3.21341463 C17.4911111,2.83536585 17.1511111,2.79756098 17,2.79756098 C16.8488889,2.79756098 16.5088889,2.83536585 16.2822222,3.21341463 L2.60666667,26.954878 Z" id="Shape"></path>
                    <path d="M17,21.6621951 C16.32,21.6621951 15.8666667,21.095122 15.8666667,20.4146341 L15.8666667,10.0182927 C15.8666667,9.33780488 16.32,8.77073171 17,8.77073171 C17.68,8.77073171 18.1333333,9.33780488 18.1333333,10.0182927 L18.1333333,20.4146341 C18.1333333,21.095122 17.68,21.6621951 17,21.6621951 Z" id="Shape"></path>
                    <ellipse id="Oval" cx="17" cy="24.8756098" rx="1.47333333" ry="1.47439024"></ellipse>
                </g>
            </g>
        </g>
    </g>
</svg>