<?xml version="1.0" encoding="UTF-8"?>
<svg width="36px" height="36px" viewBox="0 0 36 36" version="1.1" xmlns="http://www.w3.org/2000/svg" xmlns:xlink="http://www.w3.org/1999/xlink">
    <!-- Generator: Sketch 41.2 (35397) - http://www.bohemiancoding.com/sketch -->
    <title>Group 12</title>
    <desc>Created with Sketch.</desc>
    <defs>
        <circle id="path-1" cx="18" cy="18" r="18"></circle>
        <mask id="mask-2" maskContentUnits="userSpaceOnUse" maskUnits="objectBoundingBox" x="0" y="0" width="36" height="36" fill="white">
            <use xlink:href="#path-1"></use>
        </mask>
    </defs>
    <g id="Page-1" stroke="none" stroke-width="1" fill="none" fill-rule="evenodd">
        <g id="23_Applycation_saved_popup-Copy" transform="translate(-500.000000, -583.000000)">
            <g id="Group-12" transform="translate(500.000000, 583.000000)">
                <use id="Oval" stroke="#044B8A" mask="url(#mask-2)" stroke-width="2" xlink:href="#path-1"></use>
                <path d="M21.8093132,25.0169616 L21.5575692,26.0460601 C20.8023371,26.3441483 20.1990557,26.5710247 19.7498243,26.7270124 C19.3001084,26.8834844 18.777566,26.9613168 18.182197,26.9613168 C17.2679093,26.9613168 16.5567607,26.737347 16.0495587,26.2924754 C15.5423567,25.8458276 15.2886749,25.2798476 15.2886749,24.5932437 C15.2886749,24.3274511 15.3070834,24.054069 15.3453536,23.7755197 C15.3839469,23.4966474 15.4453084,23.1825729 15.5292769,22.83152 L16.4731152,19.4908656 C16.5570836,19.1709779 16.6284569,18.867884 16.68562,18.5812607 C16.7435906,18.2964137 16.7715263,18.0343351 16.7715263,17.798416 C16.7715263,17.3717914 16.6831979,17.0733803 16.5073485,16.9056048 C16.3314991,16.7383137 15.995948,16.6533763 15.4977888,16.6533763 C15.2537957,16.6533763 15.0030205,16.692454 14.7474011,16.7680256 C14.4906512,16.8439202 14.2712028,16.9172312 14.0869565,16.9853748 L14.3393464,15.9554689 C14.9576452,15.7037249 15.5486543,15.4881519 16.1139883,15.3092344 C16.6793224,15.1298325 17.2134912,15.0400508 17.7187555,15.0400508 C18.6267456,15.0400508 19.3273982,15.2594993 19.8194213,15.6983961 C20.3114444,16.137616 20.5573752,16.706987 20.5573752,17.4086084 C20.5573752,17.553777 20.5412274,17.8095579 20.5065096,18.1751439 C20.4725993,18.5415372 20.4094614,18.8772497 20.317419,19.1826043 L19.3776178,22.5098561 C19.3005928,22.7771019 19.2313188,23.0826181 19.1710876,23.4264045 C19.1089186,23.7679302 19.0792067,24.0288785 19.0792067,24.2039205 C19.0792067,24.645724 19.1777082,24.9473647 19.3751956,25.1077122 C19.5741364,25.2680597 19.9167924,25.3478298 20.4034867,25.3478298 C20.6319779,25.3478298 20.8919573,25.3072988 21.1808413,25.2276903 C21.4690793,25.1480817 21.679162,25.0781617 21.8093132,25.0169616 Z M22.047816,11.0481562 C22.047816,11.6278617 21.8293364,12.1229529 21.3902781,12.5300387 C20.9523501,12.9385777 20.4246403,13.1430087 19.8073104,13.1430087 C19.1880427,13.1430087 18.6590412,12.9385777 18.2161074,12.5300387 C17.773981,12.1227914 17.5524333,11.6278617 17.5524333,11.0481562 C17.5524333,10.4695809 17.773981,9.97368234 18.2161074,9.56142931 C18.6582338,9.1498222 19.1882042,8.94409938 19.8073104,8.94409938 C20.4244789,8.94409938 20.9523501,9.15030663 21.3902781,9.56142931 C21.8294979,9.97368234 22.047816,10.4697424 22.047816,11.0481562 Z" id="Shape" fill="#044B8A"></path>
            </g>
        </g>
    </g>
</svg>