<?xml version="1.0" encoding="UTF-8"?>
<svg width="26px" height="59px" viewBox="0 0 26 59" version="1.1" xmlns="http://www.w3.org/2000/svg" xmlns:xlink="http://www.w3.org/1999/xlink">
    <!-- Generator: Sketch 41.2 (35397) - http://www.bohemiancoding.com/sketch -->
    <title>Shape</title>
    <desc>Created with Sketch.</desc>
    <defs></defs>
    <g id="Page-1" stroke="none" stroke-width="1" fill="none" fill-rule="evenodd">
        <g id="Maching-customer_popup" transform="translate(-707.000000, -261.000000)" fill="#FFFFFF">
            <g id="matching_popup" transform="translate(215.000000, 116.000000)">
                <g id="matching_info_popup">
                    <g id="matching-info" transform="translate(447.000000, 117.000000)">
                        <path d="M69.6686393,79.9152941 L68.864457,83.2026921 C66.4519102,84.1549182 64.5247614,84.8796623 63.0897165,85.3779562 C61.653124,85.8777975 59.9838913,86.1264286 58.0820183,86.1264286 C55.1613769,86.1264286 52.8896522,85.4109694 51.2694235,83.9898519 C49.6491949,82.5630603 48.8388226,80.7550687 48.8388226,78.5617506 C48.8388226,77.7126909 48.8976275,76.8393872 49.0198797,75.9495768 C49.1431636,75.0587347 49.3391798,74.0554412 49.6074125,72.9340222 L52.6224512,62.2624874 C52.8906839,61.240624 53.1186817,60.2724071 53.3012862,59.3568051 C53.48647,58.4468772 53.5757089,57.6096817 53.5757089,56.856051 C53.5757089,55.4932225 53.2935488,54.5399648 52.7318076,54.0040152 C52.1700664,53.4696131 51.0981673,53.1982855 49.5068252,53.1982855 C48.7274029,53.1982855 47.9263156,53.3231168 47.1097534,53.5645263 C46.2895803,53.8069673 45.5885644,54.0411551 45,54.2588363 L45.8062456,50.968859 C47.7813668,50.1646768 49.6693123,49.4760409 51.4752406,48.9044989 C53.2811688,48.3314094 54.9875414,48.0446068 56.6015801,48.0446068 C59.5021041,48.0446068 61.7402997,48.7456226 63.3120401,50.1476543 C64.8837806,51.5507177 65.6693929,53.3695417 65.6693929,55.6108323 C65.6693929,56.0745653 65.6178097,56.8916434 65.5069058,58.0594873 C65.398581,59.2299104 65.1968907,60.3023254 64.9028664,61.2777639 L61.9007234,71.9064846 C61.6546715,72.7601868 61.4333795,73.7361411 61.2409742,74.8343477 C61.0423788,75.9253326 60.9474657,76.7589173 60.9474657,77.3180794 C60.9474657,78.729396 61.2621233,79.6929704 61.892986,80.2051917 C62.5284911,80.717413 63.6230869,80.9722341 65.1778049,80.9722341 C65.9077073,80.9722341 66.738197,80.8427602 67.6610207,80.588455 C68.581781,80.3341497 69.2528786,80.1107944 69.6686393,79.9152941 Z M70.4305233,35.292721 C70.4305233,37.1445583 69.7326025,38.7260996 68.3300549,40.0265124 C66.9311182,41.3315676 65.2453789,41.9846111 63.2733527,41.9846111 C61.2951365,41.9846111 59.6052705,41.3315676 58.190343,40.0265124 C56.7779947,38.7255838 56.070273,37.1445583 56.070273,35.292721 C56.070273,33.4444946 56.7779947,31.8603741 58.190343,30.5434548 C59.6026914,29.2285987 61.2956524,28.5714286 63.2733527,28.5714286 C65.2448631,28.5714286 66.9311182,29.2301462 68.3300549,30.5434548 C69.7331183,31.8603741 70.4305233,33.4450104 70.4305233,35.292721 Z" id="Shape"></path>
                    </g>
                </g>
            </g>
        </g>
    </g>
</svg>