<?xml version="1.0" encoding="UTF-8"?>
<svg width="35px" height="24px" viewBox="0 0 35 24" version="1.1" xmlns="http://www.w3.org/2000/svg" xmlns:xlink="http://www.w3.org/1999/xlink">
    <!-- Generator: Sketch 41.2 (35397) - http://www.bohemiancoding.com/sketch -->
    <title>supervisor_account - material</title>
    <desc>Created with Sketch.</desc>
    <defs></defs>
    <g id="Page-1" stroke="none" stroke-width="1" fill="none" fill-rule="evenodd">
        <g id="OAO_Product_Listing_Design_step_2" transform="translate(-770.000000, -454.000000)" fill="#044B8A">
            <g id="Group-3" transform="translate(602.000000, 425.000000)">
                <g id="Group-2-Copy" transform="translate(131.000000, 0.000000)">
                    <path d="M49,42.6907216 C50.2371196,42.6907216 51.6116763,42.8556685 53.1237113,43.185567 C51.5566932,44.0378049 50.4295567,45.082468 49.742268,46.3195876 C49.2474202,47.2268087 49,48.1615072 49,49.1237113 L49,53 L37,53 L37,48.7113402 C37,47.4742206 37.7422606,46.3608297 39.2268041,45.371134 C40.4639237,44.5463876 42.0859006,43.8728548 44.0927835,43.3505155 C45.879734,42.9106507 47.5154565,42.6907216 49,42.6907216 Z M61.9072165,44.4639175 C63.0618614,44.4639175 64.3401992,44.6288643 65.742268,44.9587629 C67.3092862,45.3711361 68.5876239,45.8934676 69.5773196,46.5257732 C70.7319645,47.2955365 71.3092784,48.1615072 71.3092784,49.1237113 L71.3092784,53 L52.4639175,53 L52.4639175,49.1237113 C52.4639175,48.1615072 53.0412313,47.2955365 54.1958763,46.5257732 C55.185572,45.8934676 56.4639097,45.3711361 58.0309278,44.9587629 C59.4329967,44.6288643 60.72508,44.4639175 61.9072165,44.4639175 Z M49,39.3092784 C48.092779,39.3092784 47.2405538,39.0756037 46.443299,38.6082474 C45.6460441,38.1408911 45.013748,37.5085951 44.5463918,36.7113402 C44.0790355,35.9140854 43.8453608,35.0618602 43.8453608,34.1546392 C43.8453608,33.2474181 44.0790355,32.395193 44.5463918,31.5979381 C45.013748,30.8006833 45.6460441,30.1683872 46.443299,29.7010309 C47.2405538,29.2336746 48.092779,29 49,29 C49.907221,29 50.7594462,29.2336746 51.556701,29.7010309 C52.3539559,30.1683872 52.986252,30.8006833 53.4536082,31.5979381 C53.9209645,32.395193 54.1546392,33.2474181 54.1546392,34.1546392 C54.1546392,35.0618602 53.9209645,35.9140854 53.4536082,36.7113402 C52.986252,37.5085951 52.3539559,38.1408911 51.556701,38.6082474 C50.7594462,39.0756037 49.907221,39.3092784 49,39.3092784 Z M61.9072165,41 C61.1374532,41 60.4226837,40.8075621 59.7628866,40.4226804 C59.1030895,40.0377988 58.5807579,39.5154672 58.1958763,38.8556701 C57.8109946,38.195873 57.6185567,37.4811035 57.6185567,36.7113402 C57.6185567,35.9415769 57.8109946,35.2268074 58.1958763,34.5670103 C58.5807579,33.9072132 59.1030895,33.3780089 59.7628866,32.9793814 C60.4226837,32.580754 61.1374532,32.3814433 61.9072165,32.3814433 C62.6769798,32.3814433 63.3848765,32.580754 64.0309278,32.9793814 C64.6769792,33.3780089 65.1924379,33.9072132 65.5773196,34.5670103 C65.9622012,35.2268074 66.1546392,35.9415769 66.1546392,36.7113402 C66.1546392,37.4811035 65.9622012,38.1890002 65.5773196,38.8350515 C65.1924379,39.4811029 64.6701064,40.0034344 64.0103093,40.4020619 C63.3505122,40.8006893 62.6494882,41 61.9072165,41 Z" id="supervisor_account---material"></path>
                </g>
            </g>
        </g>
    </g>
</svg>