<?xml version="1.0" encoding="UTF-8"?>
<svg width="195px" height="39px" viewBox="0 0 195 39" version="1.1" xmlns="http://www.w3.org/2000/svg" xmlns:xlink="http://www.w3.org/1999/xlink">
    <!-- Generator: Sketch 41.2 (35397) - http://www.bohemiancoding.com/sketch -->
    <title>Logo</title>
    <desc>Created with Sketch.</desc>
    <defs></defs>
    <g id="Symbols" stroke="none" stroke-width="1" fill="none" fill-rule="evenodd">
        <g id="Header" transform="translate(-149.000000, -18.000000)">
            <g id="Group-3-Copy">
                <g id="Logo" transform="translate(150.000000, 18.000000)">
                    <text id="Online-Account-Openi" font-family="Roboto-Light, Roboto" font-size="12" font-weight="300" letter-spacing="-0.0799999982" fill="#27323D">
                        <tspan x="105.291005" y="15.2162162">Online </tspan>
                        <tspan x="105.291005" y="29.2162162">Account Opening</tspan>
                    </text>
                    <g id="Group-2" transform="translate(0.000000, 1.054054)">
                        <path d="M71.7304762,31.9544808 C80.4181783,31.9544808 87.4609524,24.8012266 87.4609524,15.9772404 C87.4609524,7.15325418 80.4181783,0 71.7304762,0 C63.0427741,0 56,7.15325418 56,15.9772404 C56,24.8012266 63.0427741,31.9544808 71.7304762,31.9544808 Z M71.7304762,26.2190612 C77.299516,26.2190612 81.8141148,21.6336418 81.8141148,15.9772404 C81.8141148,10.320839 77.299516,5.73541963 71.7304762,5.73541963 C66.1614364,5.73541963 61.6468376,10.320839 61.6468376,15.9772404 C61.6468376,21.6336418 66.1614364,26.2190612 71.7304762,26.2190612 Z" id="Combined-Shape-Copy" stroke="#27323D" stroke-width="2" fill="#27323D"></path>
                        <path d="M15.7282708,31.9500008 C24.4147549,31.9500008 31.4565415,24.7977495 31.4565415,15.9750004 C31.4565415,7.15225129 24.4147549,0 15.7282708,0 C7.04178668,0 0,7.15225129 0,15.9750004 C0,24.7977495 7.04178668,31.9500008 15.7282708,31.9500008 Z M15.7282708,26.2153852 C21.2965298,26.2153852 25.8104956,21.6306088 25.8104956,15.9750004 C25.8104956,10.319392 21.2965298,5.73461552 15.7282708,5.73461552 C10.1600117,5.73461552 5.64604592,10.319392 5.64604592,15.9750004 C5.64604592,21.6306088 10.1600117,26.2153852 15.7282708,26.2153852 Z" id="Combined-Shape-Copy-2" stroke="#27323D" fill="#27323D"></path>
                        <path d="M48.3084815,25.9813193 L37.9165883,25.9813193 L36.1017878,31.9500008 L28,31.9500008 L39.5369459,0 L46.6665192,0 L58.2898841,31.9500008 L50.1448867,31.9500008 L48.3084815,25.9813193 Z M39.7313888,20.0345815 L46.493681,20.0345815 L43.1017325,8.95302219 L39.7313888,20.0345815 Z" id="A" fill="#FC7157"></path>
                    </g>
                    <path d="M96.3412698,0.527027027 L96.3412698,38.4876098" id="Line" stroke="#27323D" stroke-linecap="square"></path>
                </g>
            </g>
        </g>
    </g>
</svg>