<?xml version="1.0" encoding="UTF-8"?>
<svg width="24px" height="24px" viewBox="0 0 24 24" version="1.1" xmlns="http://www.w3.org/2000/svg" xmlns:xlink="http://www.w3.org/1999/xlink">
    <!-- Generator: Sketch 41.2 (35397) - http://www.bohemiancoding.com/sketch -->
    <title>matching_customer_icon</title>
    <desc>Created with Sketch.</desc>
    <defs>
        <path d="M21.6325,14.1052632 L14.2794118,21.6273684 C14.1641124,21.7459751 14.0075164,21.8129791 13.8439706,21.8136842 L13.8439706,21.8136842 C13.6784573,21.8121526 13.5204708,21.7427543 13.4054412,21.6210526 L10.7711765,18.8421053 C10.5341001,18.590961 10.5410134,18.190845 10.7866176,17.9484211 C11.0322219,17.7059971 11.4235119,17.7130663 11.6605882,17.9642105 L13.8563235,20.2884211 L20.7647059,13.2210526 C21.0102653,13.0268181 21.3586626,13.0491522 21.5785763,13.2732261 C21.7984899,13.4972999 21.8215733,13.8534739 21.6325,14.1052632 Z" id="path-1"></path>
        <mask id="mask-2" maskContentUnits="userSpaceOnUse" maskUnits="objectBoundingBox" x="-2" y="-2" width="15.1624712" height="12.7246534">
            <rect x="8.59779477" y="11.0890308" width="15.1624712" height="12.7246534" fill="white"></rect>
            <use xlink:href="#path-1" fill="black"></use>
        </mask>
    </defs>
    <g id="Page-1" stroke="none" stroke-width="1" fill="none" fill-rule="evenodd">
        <g id="05_Maching-customer_popup" transform="translate(-435.000000, -459.000000)">
            <g id="matching_customer_icon" transform="translate(435.000000, 459.000000)">
                <g id="noun_645587_cc" fill="#83919E">
                    <g id="less_Is_More_V1.0">
                        <path d="M20.7602648,7.02631579 C20.7622346,3.66961827 18.3818884,0.807488373 15.1415357,0.270352171 C11.901183,-0.266784032 8.75849707,1.67982192 7.72332883,4.86525158 C6.68816059,8.05068125 8.06644985,11.5334936 10.9767354,13.0863158 C6.66203247,14.4756515 3.72696392,18.5659726 3.72555888,23.1915789 C3.72555888,23.5403904 4.00208889,23.8231579 4.34320594,23.8231579 C4.68432299,23.8231579 4.960853,23.5403904 4.960853,23.1915789 C4.96595982,18.0487751 9.04178744,13.8810115 14.0711471,13.8757895 C17.7676498,13.8723029 20.7619714,10.8061994 20.7602648,7.02631579 Z M8.61732359,7.02631579 C8.61732359,3.94631094 11.0590836,1.44947368 14.0711471,1.44947368 C17.0832107,1.44947368 19.5249706,3.94631094 19.5249706,7.02631579 C19.5249706,10.1063206 17.0832107,12.6031579 14.0711471,12.6031579 C11.0604946,12.5996773 8.62072738,10.1048778 8.61732359,7.02631579 L8.61732359,7.02631579 Z" id="Shape" transform="translate(12.242912, 12.002374) scale(-1, 1) translate(-12.242912, -12.002374) "></path>
                        <path d="M17.22,7.02631579 C17.2219699,3.66961827 14.8416236,0.807488373 11.6012709,0.270352171 C8.36091821,-0.266784032 5.21823231,1.67982192 4.18306406,4.86525158 C3.14789582,8.05068125 4.52618508,11.5334936 7.43647059,13.0863158 C3.12176771,14.4756515 0.186699149,18.5659726 0.185294118,23.1915789 C0.185294118,23.5403904 0.461824125,23.8231579 0.802941176,23.8231579 C1.14405823,23.8231579 1.42058824,23.5403904 1.42058824,23.1915789 C1.42569505,18.0487751 5.50152268,13.8810115 10.5308824,13.8757895 C14.227385,13.8723029 17.2217066,10.8061994 17.22,7.02631579 Z M5.07705882,7.02631579 C5.07705882,3.94631094 7.51881879,1.44947368 10.5308824,1.44947368 C13.5429459,1.44947368 15.9847059,3.94631094 15.9847059,7.02631579 C15.9847059,10.1063206 13.5429459,12.6031579 10.5308824,12.6031579 C7.52022981,12.5996773 5.08046262,10.1048778 5.07705882,7.02631579 L5.07705882,7.02631579 Z" id="Shape-Copy"></path>
                    </g>
                </g>
                <g id="Path">
                    <use fill="#96A2AD" fill-rule="evenodd" xlink:href="#path-1"></use>
                    <use stroke="#FFFFFF" mask="url(#mask-2)" stroke-width="4" xlink:href="#path-1"></use>
                </g>
            </g>
        </g>
    </g>
</svg>