<?xml version="1.0" encoding="UTF-8"?>
<svg width="50px" height="50px" viewBox="0 0 50 50" version="1.1" xmlns="http://www.w3.org/2000/svg" xmlns:xlink="http://www.w3.org/1999/xlink">
    <!-- Generator: Sketch 41.2 (35397) - http://www.bohemiancoding.com/sketch -->
    <title>Online ID_check Popup</title>
    <desc>Created with Sketch.</desc>
    <defs></defs>
    <g id="Page-1" stroke="none" stroke-width="1" fill="none" fill-rule="evenodd">
        <g id="14_ID_CHECK" transform="translate(-695.000000, -233.000000)" fill="#FFFFFF">
            <g id="id_popup" transform="translate(215.000000, 116.000000)">
                <path d="M504.575,144.591692 C507.567181,144.591692 510.902676,145.05768 514.581587,145.989671 C518.701967,147.019766 522.037462,148.393205 524.588174,150.11003 C527.629406,152.17022 529.15,154.45111 529.15,156.952769 L529.15,166.15 L480,166.15 L480,156.952769 C480,154.45111 481.520594,152.17022 484.561826,150.11003 C487.112538,148.393205 490.448033,147.019766 494.568413,145.989671 C498.247324,145.05768 501.582819,144.591692 504.575,144.591692 Z M504.575,117 C506.782346,117 508.81798,117.551828 510.681961,118.655501 C512.545942,119.759175 514.029747,121.267505 515.133421,123.180539 C516.237094,125.093572 516.788922,127.153731 516.788922,129.361078 C516.788922,131.568424 516.237094,133.604058 515.133421,135.468039 C514.029747,137.33202 512.545942,138.815825 510.681961,139.919498 C508.81798,141.023172 506.782346,141.575 504.575,141.575 C502.367654,141.575 500.33202,141.023172 498.468039,139.919498 C496.604058,138.815825 495.120253,137.33202 494.016579,135.468039 C492.912906,133.604058 492.361078,131.568424 492.361078,129.361078 C492.361078,127.153731 492.912906,125.093572 494.016579,123.180539 C495.120253,121.267505 496.604058,119.759175 498.468039,118.655501 C500.33202,117.551828 502.367654,117 504.575,117 Z M504.575,150.477919 C501.779028,150.477919 498.811418,150.894856 495.672081,151.728742 C492.974213,152.464525 490.668797,153.34745 488.755763,154.377545 C486.84273,155.40764 485.886228,156.266039 485.886228,156.952769 L485.886228,160.263772 L523.263772,160.263772 L523.263772,156.952769 C523.263772,156.266039 522.30727,155.40764 520.394237,154.377545 C518.481203,153.34745 516.175787,152.464525 513.477919,151.728742 C510.338582,150.894856 507.370972,150.477919 504.575,150.477919 Z M504.575,122.886228 C502.760071,122.886228 501.227214,123.511633 499.976385,124.762463 C498.725555,126.013292 498.10015,127.546149 498.10015,129.361078 C498.10015,131.176007 498.725555,132.684338 499.976385,133.886115 C501.227214,135.087893 502.760071,135.688772 504.575,135.688772 C506.389929,135.688772 507.922786,135.087893 509.173615,133.886115 C510.424445,132.684338 511.04985,131.176007 511.04985,129.361078 C511.04985,127.546149 510.424445,126.013292 509.173615,124.762463 C507.922786,123.511633 506.389929,122.886228 504.575,122.886228 Z" id="Online-ID_check-Popup"></path>
            </g>
        </g>
    </g>
</svg>