<?xml version="1.0" encoding="UTF-8"?>
<svg width="48px" height="47px" viewBox="0 0 48 47" version="1.1" xmlns="http://www.w3.org/2000/svg" xmlns:xlink="http://www.w3.org/1999/xlink">
    <!-- Generator: Sketch 41.2 (35397) - http://www.bohemiancoding.com/sketch -->
    <title>personal_loan_icon</title>
    <desc>Created with Sketch.</desc>
    <defs>
        <path d="M47.6364583,30.3052083 C46.853125,28.8854167 45.53125,28.1510417 43.6708333,28.1020833 C42.7895833,28.1020833 41.9083333,28.2489583 40.978125,28.5916667 C41.125,27.90625 41.1739583,27.2208333 41.125,26.5354167 L41.125,26.4375 C40.7333333,21.5416667 38.8239583,16.8416667 35.5927083,12.8270833 L33.4385417,10.1833333 L36.2291667,3.62291667 C36.3760417,3.23125 36.3760417,2.790625 36.13125,2.44791667 C35.8864583,2.10520833 35.54375,1.909375 35.103125,1.909375 L30.696875,1.909375 L30.7458333,1.56666667 C30.84375,1.22395833 30.7458333,0.832291667 30.5010417,0.538541667 C30.25625,0.244791667 29.9135417,0.0979166667 29.5708333,0.0979166667 L22.5208333,0.0979166667 C22.1291667,0.0979166667 21.7864583,0.244791667 21.590625,0.538541667 C21.3458333,0.832291667 21.2479167,1.22395833 21.3458333,1.56666667 L21.3947917,1.909375 L17.2333333,1.909375 C16.8416667,1.909375 16.45,2.10520833 16.2052083,2.44791667 C15.9604167,2.790625 15.9604167,3.23125 16.1072917,3.62291667 L18.8979167,10.1833333 L16.74375,12.8270833 C13.5125,16.7927083 11.603125,21.4927083 11.2114583,26.3885417 L11.2114583,26.4864583 C11.1625,26.8291667 11.2114583,27.2208333 11.2114583,27.5635417 C9.88958333,28.1020833 8.225,29.0322917 6.80520833,29.8645833 C6.70729167,29.2770833 6.21770833,28.8364583 5.58125,28.8364583 L1.22395833,28.8364583 C0.538541667,28.8364583 0,29.375 0,30.0604167 L0,45.678125 C0,46.3635417 0.538541667,46.9020833 1.22395833,46.9020833 L5.58125,46.9020833 C6.26666667,46.9020833 6.80520833,46.3635417 6.80520833,45.678125 L6.80520833,44.503125 L8.61666667,43.0833333 C9.9875,42.0552083 11.7010417,41.565625 13.4145833,41.7125 C15.4708333,41.859375 16.9395833,42.00625 17.7229167,42.2020833 L22.5697917,43.2302083 C24.9197917,43.7197917 27.31875,43.6708333 29.4729167,43.0833333 C30.25625,42.8875 30.8927083,42.6427083 31.43125,42.3489583 L46.5104167,33.9770833 C47.146875,33.634375 47.6364583,33.046875 47.8322917,32.3614583 C48.0770833,31.6760417 47.9791667,30.9416667 47.6364583,30.3052083 Z M45.53125,31.6760417 C45.53125,31.725 45.4822917,31.7739583 45.384375,31.8229167 L30.3052083,40.24375 C29.9625,40.4395833 29.4729167,40.6354167 28.8854167,40.7822917 C27.0739583,41.271875 25.0666667,41.3208333 23.1083333,40.8802083 L18.2614583,39.8520833 C17.33125,39.65625 15.7645833,39.509375 13.6104167,39.3135417 C11.309375,39.1666667 9.05729167,39.803125 7.196875,41.1739583 L6.85416667,41.41875 L6.85416667,35.7395833 L6.85416667,32.7041667 C7.05,32.60625 7.29479167,32.459375 7.490625,32.3125 C9.00833333,31.43125 11.3583333,30.0604167 12.5822917,29.66875 C13.1208333,29.521875 13.7572917,29.375 14.540625,29.3260417 C16.0583333,29.228125 17.5760417,29.4729167 19.1427083,30.0114583 C22.765625,31.2354167 25.2135417,31.871875 26.3885417,31.871875 L31.3333333,31.871875 L31.3333333,31.871875 C31.9208333,31.871875 32.4104167,32.3614583 32.4104167,32.9 L32.4104167,32.9489583 C32.4104167,33.2427083 32.3125,33.4875 32.1166667,33.6833333 C31.9208333,33.8791667 31.6270833,33.9770833 31.3822917,33.9770833 L21.884375,33.9770833 C21.1989583,33.9770833 20.6604167,34.515625 20.6604167,35.2010417 C20.6604167,35.8864583 21.1989583,36.425 21.884375,36.425 L21.884375,36.425 L31.3822917,36.425 C32.3125,36.425 33.19375,36.0822917 33.8791667,35.396875 C34.3197917,34.95625 34.6625,34.36875 34.809375,33.78125 L41.6145833,30.9416667 C42.3,30.6479167 42.9854167,30.5010417 43.621875,30.5010417 C44.8458333,30.5010417 45.2375,30.990625 45.4822917,31.43125 C45.53125,31.5291667 45.53125,31.6270833 45.53125,31.6760417 Z M13.6104167,26.6333333 C13.953125,22.2270833 15.715625,17.9677083 18.6041667,14.39375 L21.2479167,11.1625 C21.5416667,10.8197917 21.590625,10.3302083 21.44375,9.88958333 L19.09375,4.35729167 L21.9333333,4.35729167 L22.325,6.315625 C22.4229167,6.903125 22.9614583,7.29479167 23.5,7.29479167 C23.5979167,7.29479167 23.646875,7.29479167 23.7447917,7.24583333 C24.4302083,7.09895833 24.821875,6.4625 24.675,5.77708333 L23.9895833,2.496875 L28.0041667,2.496875 L27.31875,5.77708333 C27.171875,6.4625 27.6125,7.09895833 28.2489583,7.24583333 C28.8854167,7.39270833 29.5708333,6.95208333 29.7177083,6.315625 L30.109375,4.35729167 L33.1447917,4.35729167 L30.7947917,9.88958333 C30.5989583,10.3302083 30.696875,10.7708333 30.990625,11.1625 L33.634375,14.39375 C36.571875,18.0166667 38.2854167,22.2270833 38.628125,26.6333333 L38.628125,26.73125 C38.7260417,27.90625 38.334375,29.08125 37.6,29.9625 L34.36875,31.3333333 C33.78125,30.25625 32.60625,29.4729167 31.284375,29.4729167 L31.284375,29.4729167 L26.3885417,29.4729167 C25.55625,29.4729167 23.059375,28.7875 19.9260417,27.7104167 C18.065625,27.0739583 16.2052083,26.7802083 14.39375,26.878125 C14.1489583,26.878125 13.8552083,26.9270833 13.6104167,26.9270833 C13.6104167,26.8291667 13.6104167,26.73125 13.6104167,26.6333333 L13.6104167,26.6333333 Z M2.44791667,44.503125 L2.44791667,31.3822917 L4.35729167,31.3822917 L4.35729167,31.9697917 L4.35729167,32.01875 L4.35729167,35.7885417 L4.35729167,44.503125 L2.44791667,44.503125 L2.44791667,44.503125 Z" id="path-1"></path>
        <mask id="mask-2" maskContentUnits="userSpaceOnUse" maskUnits="objectBoundingBox" x="0" y="0" width="47.9682715" height="46.8041667" fill="white">
            <use xlink:href="#path-1"></use>
        </mask>
    </defs>
    <g id="Page-1" stroke="none" stroke-width="1" fill="none" fill-rule="evenodd">
        <g id="OAO_Product_Listing_Design_1" transform="translate(-200.000000, -1748.000000)" stroke="#044B8A" stroke-width="1.5" fill="#FFFFFF">
            <g id="Product_Box-Copy-6" transform="translate(149.000000, 1709.000000)">
                <g id="Product_Title" transform="translate(38.000000, 25.000000)">
                    <g id="personal_loan_icon" transform="translate(13.000000, 14.000000)">
                        <use id="Shape" mask="url(#mask-2)" xlink:href="#path-1"></use>
                        <path d="M30.3052083,20.6114583 C30.3052083,17.2822917 27.90625,16.7927083 26.0458333,16.6458333 C24.7729167,16.5479167 24.1854167,16.1072917 24.1854167,15.275 C24.1854167,14.4427083 24.821875,14.0510417 25.996875,14.0510417 C26.5354167,14.0510417 27.1229167,14.1489583 27.6125,14.4427083 C28.1510417,14.7854167 28.8854167,14.5895833 29.228125,14.0510417 C29.6197917,13.5125 29.4729167,12.6802083 28.8854167,12.3375 C28.2979167,11.9947917 27.759375,11.75 27.171875,11.6520833 L27.171875,10.4770833 C27.171875,9.840625 26.6333333,9.30208333 25.996875,9.30208333 C25.3604167,9.30208333 24.821875,9.840625 24.821875,10.4770833 L24.821875,11.603125 C23.2552083,11.9458333 21.7375,13.071875 21.7375,15.3239583 C21.7375,18.1635417 23.9895833,19.0447917 25.85,19.1916667 C27.2697917,19.2895833 27.8083333,19.68125 27.8083333,20.5135417 C27.8083333,21.3947917 26.9270833,22.03125 25.996875,22.03125 C25.3114583,22.03125 24.38125,21.6885417 23.5489583,21.2479167 C22.9614583,20.85625 22.0802083,21.0520833 21.7375,21.7375 C21.44375,22.2760417 21.5416667,22.9125 21.9822917,23.3041667 C22.8635417,24.1364583 23.79375,24.528125 24.7239583,24.675 L24.7239583,25.85 C24.7239583,26.4864583 25.2625,27.025 25.8989583,27.025 C26.5354167,27.025 27.0739583,26.4864583 27.0739583,25.85 L27.0739583,24.675 C29.228125,24.1364583 30.3052083,22.471875 30.3052083,20.6114583 Z" id="Shape"></path>
                    </g>
                </g>
            </g>
        </g>
    </g>
</svg>