<?xml version="1.0" encoding="UTF-8"?>
<svg width="42px" height="56px" viewBox="0 0 42 56" version="1.1" xmlns="http://www.w3.org/2000/svg" xmlns:xlink="http://www.w3.org/1999/xlink">
    <!-- Generator: Sketch 41.2 (35397) - http://www.bohemiancoding.com/sketch -->
    <title>noun_875439_cc</title>
    <desc>Created with Sketch.</desc>
    <defs></defs>
    <g id="Page-1" stroke="none" stroke-width="1" fill="none" fill-rule="evenodd">
        <g id="22_save-application" transform="translate(-699.000000, -230.000000)" fill="#FFFFFF">
            <g id="noun_875439_cc" transform="translate(699.000000, 230.000000)">
                <g id="Group">
                    <g transform="translate(0.000000, 0.396866)" id="Shape">
                        <path d="M15.1277778,0.225356444 C14.4864464,0.285800086 13.9972224,0.825633462 14,1.46980089 L14,3.33646756 L11.2,3.33646756 C10.5127408,3.33653627 9.95562427,3.89365278 9.95555556,4.580912 L9.95555556,5.82535644 L1.24444444,5.82535644 C1.20557694,5.82353271 1.16664529,5.82353271 1.12777778,5.82535644 C0.486446385,5.88580009 -0.00277761178,6.42563346 -8.54660689e-13,7.06980089 L-8.52450109e-13,53.7364676 C-0.00634702699,54.1852589 0.229444813,54.6027021 0.617086213,54.8289501 C1.00472761,55.055198 1.48416128,55.055198 1.87180268,54.8289501 C2.25944408,54.6027021 2.49523592,54.1852589 2.48888889,53.7364676 L2.48888889,8.31424533 L9.95555556,8.31424533 L9.95555556,10.180912 C9.95562427,10.8681712 10.5127408,11.4252877 11.2,11.4253564 L29.8666667,11.4253564 C30.5539259,11.4252877 31.1110424,10.8681712 31.1111111,10.180912 L31.1111111,4.580912 C31.1110424,3.89365278 30.5539259,3.33653627 29.8666667,3.33646756 L27.0666667,3.33646756 L27.0666667,1.46980089 C27.066598,0.782541665 26.5094814,0.22542516 25.8222222,0.225356444 L15.2444444,0.225356444 C15.2055769,0.223532708 15.1666453,0.223532708 15.1277778,0.225356444 Z M16.4888889,2.71424533 L24.5777778,2.71424533 L24.5777778,4.580912 C24.5778465,5.26817122 25.134963,5.82528773 25.8222222,5.82535644 L28.6222222,5.82535644 L28.6222222,8.93646756 L12.4444444,8.93646756 L12.4444444,5.82535644 L15.2444444,5.82535644 C15.9317037,5.82528773 16.4888202,5.26817122 16.4888889,4.580912 L16.4888889,2.71424533 Z M34.7277778,5.82535644 C34.2831171,5.84611078 33.8833169,6.10254286 33.6790131,6.49803468 C33.4747093,6.89352649 33.4969492,7.36797671 33.7373532,7.74262284 C33.9777572,8.11726898 34.3997922,8.33517754 34.8444444,8.31424533 L38.5777778,8.31424533 L38.5777778,52.4920231 L6.06666667,52.4920231 C5.6178753,52.4856761 5.20043208,52.7214679 4.97418417,53.1091093 C4.74793626,53.4967507 4.74793626,53.9761844 4.97418417,54.3638258 C5.20043208,54.7514672 5.6178753,54.987259 6.06666667,54.980912 L39.8222222,54.980912 C40.5094814,54.9808433 41.066598,54.4237268 41.0666667,53.7364676 L41.0666667,7.06980089 C41.066598,6.38254167 40.5094814,5.82542516 39.8222222,5.82535644 L34.8444444,5.82535644 C34.8055769,5.82353271 34.7666453,5.82353271 34.7277778,5.82535644 Z M14.2138889,17.005912 C13.8900136,17.0338379 13.589919,17.1873747 13.3777778,17.4336898 L8.65277778,22.6642453 L6.475,20.4864676 C6.16099046,20.1635094 5.69698116,20.0354292 5.26176492,20.151579 C4.82654868,20.2677288 4.48806018,20.6099782 4.37672637,21.0464513 C4.26539255,21.4829244 4.39859197,21.9454901 4.725,22.255912 L7.83611111,25.3670231 C8.07911242,25.6081388 8.41069927,25.7385178 8.75284631,25.7274808 C9.09499334,25.7164438 9.41748801,25.5649654 9.64444444,25.3086898 L15.2444444,19.0864676 C15.5919999,18.7074537 15.6706628,18.1537122 15.4424104,17.6929008 C15.214158,17.2320894 14.7259982,16.9591106 14.2138889,17.005912 Z M19.1722222,20.7586898 C18.7275616,20.7794441 18.3277614,21.0358762 18.1234576,21.431368 C17.9191538,21.8268598 17.9413936,22.30131 18.1817977,22.6759562 C18.4222017,23.0506023 18.8442366,23.2685109 19.2888889,23.2475787 L35.4666667,23.2475787 C35.915458,23.2539257 36.3329013,23.0181339 36.5591492,22.6304925 C36.7853971,22.2428511 36.7853971,21.7634174 36.5591492,21.375776 C36.3329013,20.9881346 35.915458,20.7523428 35.4666667,20.7586898 L19.2888889,20.7586898 C19.2500214,20.756866 19.2110897,20.756866 19.1722222,20.7586898 L19.1722222,20.7586898 Z M14.2138889,27.5836898 C13.8900136,27.6116156 13.589919,27.7651524 13.3777778,28.0114676 L8.65277778,33.2420231 L6.475,31.0642453 C6.16099046,30.7412872 5.69698116,30.613207 5.26176492,30.7293568 C4.82654868,30.8455065 4.48806018,31.187756 4.37672637,31.6242291 C4.26539255,32.0607021 4.39859197,32.5232679 4.725,32.8336898 L7.83611111,35.9448009 C8.07911242,36.1859166 8.41069927,36.3162956 8.75284631,36.3052586 C9.09499334,36.2942216 9.41748801,36.1427432 9.64444444,35.8864676 L15.2444444,29.6642453 C15.5919999,29.2852315 15.6706628,28.73149 15.4424104,28.2706786 C15.214158,27.8098672 14.7259982,27.5368884 14.2138889,27.5836898 Z M19.1722222,31.3364676 C18.7275616,31.3572219 18.3277614,31.613654 18.1234576,32.0091458 C17.9191538,32.4046376 17.9413936,32.8790878 18.1817977,33.253734 C18.4222017,33.6283801 18.8442366,33.8462886 19.2888889,33.8253564 L35.4666667,33.8253564 C35.915458,33.8317035 36.3329013,33.5959116 36.5591492,33.2082702 C36.7853971,32.8206288 36.7853971,32.3411952 36.5591492,31.9535538 C36.3329013,31.5659124 35.915458,31.3301205 35.4666667,31.3364676 L19.2888889,31.3364676 C19.2500214,31.3346438 19.2110897,31.3346438 19.1722222,31.3364676 Z M14.2138889,38.1614676 C13.8900136,38.1893934 13.589919,38.3429302 13.3777778,38.5892453 L8.65277778,43.8198009 L6.475,41.6420231 C6.16099046,41.319065 5.69698116,41.1909848 5.26176492,41.3071345 C4.82654868,41.4232843 4.48806018,41.7655338 4.37672637,42.2020069 C4.26539255,42.6384799 4.39859197,43.1010457 4.725,43.4114676 L7.83611111,46.5225787 C8.07911242,46.7636943 8.41069927,46.8940734 8.75284631,46.8830364 C9.09499334,46.8719994 9.41748801,46.7205209 9.64444444,46.4642453 L15.2444444,40.2420231 C15.5919999,39.8630093 15.6706628,39.3092678 15.4424104,38.8484564 C15.214158,38.387645 14.7259982,38.1146662 14.2138889,38.1614676 L14.2138889,38.1614676 Z M19.1722222,41.9142453 C18.7275616,41.9349997 18.3277614,42.1914318 18.1234576,42.5869236 C17.9191538,42.9824154 17.9413936,43.4568656 18.1817977,43.8315117 C18.4222017,44.2061579 18.8442366,44.4240664 19.2888889,44.4031342 L35.4666667,44.4031342 C35.915458,44.4094812 36.3329013,44.1736894 36.5591492,43.786048 C36.7853971,43.3984066 36.7853971,42.9189729 36.5591492,42.5313315 C36.3329013,42.1436901 35.915458,41.9078983 35.4666667,41.9142453 L19.2888889,41.9142453 C19.2500214,41.9124216 19.2110897,41.9124216 19.1722222,41.9142453 Z"></path>
                    </g>
                </g>
            </g>
        </g>
    </g>
</svg>