<?xml version="1.0" encoding="UTF-8"?>
<svg width="51px" height="46px" viewBox="0 0 51 46" version="1.1" xmlns="http://www.w3.org/2000/svg" xmlns:xlink="http://www.w3.org/1999/xlink">
    <!-- Generator: Sketch 41.2 (35397) - http://www.bohemiancoding.com/sketch -->
    <title>savings_icon</title>
    <desc>Created with Sketch.</desc>
    <defs></defs>
    <g id="Page-1" stroke="none" stroke-width="1" fill="none" fill-rule="evenodd">
        <g id="OAO_Product_Listing_Design_1" transform="translate(-200.000000, -562.000000)" stroke="#FFFFFF">
            <g id="Product_Box-Copy-2" transform="translate(149.000000, 525.000000)">
                <g id="Product_Title" transform="translate(38.000000, 25.000000)">
                    <g id="savings_icon" transform="translate(14.000000, 13.000000)">
                        <path d="M39.6507692,18.7127511 C38.7067033,17.4251765 37.590989,16.2234402 36.2178022,15.1075422" id="Shape"></path>
                        <path d="M20.3403297,12.0173631 C19.7395604,10.9014651 19.3962637,9.61389048 19.3962637,8.32631586 C19.3962637,3.86272385 23.0008791,0.257514924 27.4637363,0.257514924 C31.9265934,0.257514924 35.5312088,3.86272385 35.5312088,8.32631586 C35.5312088,10.7297885 34.5013187,12.7899079 32.8706593,14.3349974" id="Shape"></path>
                        <path d="M30.4675824,5.75116663 C30.4675824,5.75116663 30.2101099,4.46359201 27.5495604,4.46359201 C25.4897802,4.46359201 24.6315385,5.57949001 24.6315385,6.60954971 C24.6315385,7.6396094 25.8330769,8.32631586 27.5495604,8.32631586 C29.8668132,8.32631586 30.4675824,9.09886063 30.4675824,10.043082 C30.4675824,11.3306566 29.0943956,12.1890397 27.5495604,12.1890397 C26.0047253,12.1890397 24.8031868,11.3306566 24.6315385,10.9014651" id="Shape"></path>
                        <path d="M27,3.43353232 L27,12.8757462" id="Shape"></path>
                        <ellipse id="Oval" cx="11.1571429" cy="23.0046665" rx="0.858241758" ry="0.858383079"></ellipse>
                        <path d="M16.8215385,11.4164949 C15.7058242,11.6740099 14.6759341,12.0173631 13.646044,12.5323929 C9.01153846,11.4164949 3.43296703,12.8757462 2.8321978,14.2491591 C2.31725275,15.3650571 4.72032967,17.6826914 6.35098901,19.0561043 C5.57857143,20.5153556 5.06362637,22.0604451 4.80615385,23.7772113 C3.17549451,23.9488879 0.944065934,24.4639177 0.600769231,25.8373307 C-2.5024427e-13,28.154965 0.600769231,33.5627784 3.60461538,34.1636465 C4.89197802,34.4211615 6.35098901,34.4211615 7.55252747,34.4211615 C8.66824176,35.7945744 10.0414286,36.8246341 11.5862637,37.8546938 L10.2130769,43.777537 L19.052967,43.777537 L20.2545055,40.6015196 C20.9410989,40.6873579 21.6276923,40.7731962 22.3142857,40.7731962 C23.43,40.7731962 24.6315385,40.5156813 25.7472527,40.3440047 L24.889011,43.777537 L33.2997802,43.777537 C33.2997802,43.777537 39.9082418,35.1078679 40.8523077,30.386761 C41.4530769,28.9275098 41.8821978,27.3824202 41.8821978,25.7514924" id="Shape"></path>
                        <path d="M39.9940659,22.4896367 C39.9940659,22.4896367 45.9159341,22.8329899 45.5726374,18.6269128 C45.3151648,15.5367337 43.7703297,14.9358656 42.7404396,16.2234402 C41.8821978,17.3393382 42.7404396,20.4295173 46.3450549,20.2578407 C49.9496703,20.086164 48.9197802,15.5367337 48.9197802,15.5367337" id="Shape"></path>
                        <path d="M20.1686813,15.2792188 C20.1686813,15.2792188 27.0346154,13.9916442 30.8967033,17.0818233" id="Shape"></path>
                    </g>
                </g>
            </g>
        </g>
    </g>
</svg>