<?xml version="1.0" encoding="UTF-8"?>
<svg width="66px" height="59px" viewBox="0 0 66 59" version="1.1" xmlns="http://www.w3.org/2000/svg" xmlns:xlink="http://www.w3.org/1999/xlink">
    <!-- Generator: Sketch 41.2 (35397) - http://www.bohemiancoding.com/sketch -->
    <title>savings_icon</title>
    <desc>Created with Sketch.</desc>
    <defs></defs>
    <g id="Page-1" stroke="none" stroke-width="1" fill="none" fill-rule="evenodd">
        <g id="OAO_Product_Listing_Design_step_2" transform="translate(-688.000000, -232.000000)" stroke="#FFFFFF" stroke-width="2">
            <g id="matching-info" transform="translate(664.000000, 204.000000)">
                <g id="savings_icon" transform="translate(25.000000, 29.000000)">
                    <path d="M51.3657692,24.2415185 C50.1427747,22.5735241 48.6974176,21.0167293 46.9185165,19.5711342" id="Shape"></path>
                    <path d="M26.3499725,15.5679477 C25.5717033,14.1223525 25.126978,12.4543581 25.126978,10.7863637 C25.126978,5.00398318 29.7965934,0.333598878 35.578022,0.333598878 C41.3594505,0.333598878 46.0290659,5.00398318 46.0290659,10.7863637 C46.0290659,13.8999533 44.6948901,16.5687443 42.5824451,18.5703376" id="Shape"></path>
                    <path d="M39.4693681,7.45037495 C39.4693681,7.45037495 39.1358242,5.78238056 35.6892033,5.78238056 C33.0208516,5.78238056 31.9090385,7.2279757 31.9090385,8.56237121 C31.9090385,9.89676672 33.4655769,10.7863637 35.6892033,10.7863637 C38.6910989,10.7863637 39.4693681,11.7871604 39.4693681,13.0103563 C39.4693681,14.6783506 37.690467,15.7903469 35.6892033,15.7903469 C33.6879396,15.7903469 32.1314011,14.6783506 31.9090385,14.1223525" id="Shape"></path>
                    <path d="M34.9772727,4.44798504 L34.9772727,16.6799439" id="Shape"></path>
                    <ellipse id="Oval" cx="14.4535714" cy="29.8014998" rx="1.11181319" ry="1.11199626"></ellipse>
                    <path d="M21.7915385,14.7895503 C20.3461813,15.1231492 19.0120055,15.5679477 17.6778297,16.2351454 C11.6740385,14.7895503 4.44725275,16.6799439 3.66898352,18.4591379 C3.0018956,19.9047331 6.11497253,22.907123 8.22741758,24.686317 C7.22678571,26.5767106 6.5596978,28.5783039 6.22615385,30.8022964 C4.11370879,31.0246957 1.22299451,31.6918934 0.778269231,33.4710875 C-1.46127555e-12,36.4734774 0.778269231,43.4790538 4.66961538,44.2574512 C6.33733516,44.5910501 8.22741758,44.5910501 9.78395604,44.5910501 C11.2293132,46.3702441 13.0082143,47.7046396 15.009478,49.0390351 L13.2305769,56.7118093 L24.6822527,56.7118093 L26.2387912,52.5974232 C27.1282418,52.7086228 28.0176923,52.8198224 28.9071429,52.8198224 C30.3525,52.8198224 31.9090385,52.4862235 33.3543956,52.2638243 L32.2425824,56.7118093 L43.1383516,56.7118093 C43.1383516,56.7118093 51.6993132,45.4806471 52.9223077,39.3646676 C53.7005769,37.474274 54.2564835,35.4726807 54.2564835,33.3598878" id="Shape"></path>
                    <path d="M51.8104945,29.134302 C51.8104945,29.134302 59.4820055,29.5791005 59.0372802,24.1303189 C58.7037363,20.1271323 56.7024725,19.3487349 55.3682967,21.0167293 C54.2564835,22.4623245 55.3682967,26.465511 60.0379121,26.2431118 C64.7075275,26.0207125 63.3733516,20.1271323 63.3733516,20.1271323" id="Shape"></path>
                </g>
            </g>
        </g>
    </g>
</svg>