<?xml version="1.0" encoding="UTF-8"?>
<svg width="22px" height="24px" viewBox="0 0 22 24" version="1.1" xmlns="http://www.w3.org/2000/svg" xmlns:xlink="http://www.w3.org/1999/xlink">
    <!-- Generator: Sketch 41.2 (35397) - http://www.bohemiancoding.com/sketch -->
    <title>supervisor_account - material</title>
    <desc>Created with Sketch.</desc>
    <defs></defs>
    <g id="Page-1" stroke="none" stroke-width="1" fill="none" fill-rule="evenodd">
        <path d="M10.992,14.064 C12.3360067,14.064 13.8239918,14.2559981 15.456,14.64 C17.2800091,15.1200024 18.7679942,15.7279963 19.92,16.464 C21.2640067,17.3600045 21.936,18.3679944 21.936,19.488 L21.936,24 L0,24 L0,19.488 C0,18.3679944 0.67199328,17.3600045 2.016,16.464 C3.16800576,15.7279963 4.65599088,15.1200024 6.48,14.64 C8.11200816,14.2559981 9.61599312,14.064 10.992,14.064 Z M10.992,10.032 C10.0959955,10.032 9.26400384,9.80800224 8.496,9.36 C7.72799616,8.91199776 7.12000224,8.30400384 6.672,7.536 C6.22399776,6.76799616 6,5.93600448 6,5.04 C6,4.14399552 6.22399776,3.31200384 6.672,2.544 C7.12000224,1.77599616 7.72799616,1.16000232 8.496,0.696 C9.26400384,0.23199768 10.0959955,0 10.992,0 C11.8880045,0 12.7119962,0.23199768 13.464,0.696 C14.2160038,1.16000232 14.8159978,1.77599616 15.264,2.544 C15.7120022,3.31200384 15.936,4.14399552 15.936,5.04 C15.936,5.93600448 15.7120022,6.75999624 15.264,7.512 C14.8159978,8.26400376 14.2080038,8.87199768 13.44,9.336 C12.6719962,9.80000232 11.8560043,10.032 10.992,10.032 Z" id="supervisor_account---material" fill="#044B8A"></path>
    </g>
</svg>