<?xml version="1.0" encoding="UTF-8"?>
<svg width="20px" height="22px" viewBox="0 0 20 22" version="1.1" xmlns="http://www.w3.org/2000/svg" xmlns:xlink="http://www.w3.org/1999/xlink">
    <!-- Generator: Sketch 41.2 (35397) - http://www.bohemiancoding.com/sketch -->
    <title>applicant_1_icon copy 4</title>
    <desc>Created with Sketch.</desc>
    <defs></defs>
    <g id="Page-1" stroke="none" stroke-width="1" fill="none" fill-rule="evenodd" opacity="0.5">
        <g id="26_joint_account_step_2" transform="translate(-194.000000, -378.000000)" stroke="#27323D" fill="#27323D">
            <g id="applicant_1_icon-copy-4" transform="translate(195.000000, 379.000000)">
                <path d="M9.03255652,11.72 C10.1369794,11.72 11.359715,11.8799984 12.7008,12.2 C14.1996597,12.600002 15.4223953,13.1066636 16.3690435,13.72 C17.4734664,14.4666704 18.0256696,15.306662 18.0256696,16.24 L18.0256696,20 L-1.29674049e-13,20 L-1.29674049e-13,16.24 C-1.29674049e-13,15.306662 0.552203174,14.4666704 1.65662609,13.72 C2.6032743,13.1066636 3.8260099,12.600002 5.32486957,12.2 C6.66595453,11.8799984 7.90183782,11.72 9.03255652,11.72 Z M9.03255652,8.36 C8.29627458,8.36 7.61259446,8.1733352 6.98149565,7.8 C6.35039684,7.4266648 5.85078445,6.9200032 5.48264348,6.28 C5.11450251,5.6399968 4.93043478,4.9466704 4.93043478,4.2 C4.93043478,3.4533296 5.11450251,2.7600032 5.48264348,2.12 C5.85078445,1.4799968 6.35039684,0.9666686 6.98149565,0.58 C7.61259446,0.1933314 8.29627458,0 9.03255652,0 C9.76883846,0 10.4459447,0.1933314 11.0638957,0.58 C11.6818466,0.9666686 12.1748851,1.4799968 12.5430261,2.12 C12.9111671,2.7600032 13.0952348,3.4533296 13.0952348,4.2 C13.0952348,4.9466704 12.9111671,5.6333302 12.5430261,6.26 C12.1748851,6.8866698 11.6752727,7.3933314 11.0441739,7.78 C10.4130751,8.1666686 9.74254268,8.36 9.03255652,8.36 Z" id="supervisor_account---material"></path>
            </g>
        </g>
    </g>
</svg>