<?xml version="1.0" encoding="UTF-8"?>
<svg width="20px" height="22px" viewBox="0 0 20 22" version="1.1" xmlns="http://www.w3.org/2000/svg" xmlns:xlink="http://www.w3.org/1999/xlink">
    <!-- Generator: Sketch 41.2 (35397) - http://www.bohemiancoding.com/sketch -->
    <title>applicant_1_icon copy 3</title>
    <desc>Created with Sketch.</desc>
    <defs></defs>
    <g id="Page-1" stroke="none" stroke-width="1" fill="none" fill-rule="evenodd">
        <g id="26_joint_account_step_2" transform="translate(-195.000000, -317.000000)" stroke="#27323D" fill="#27323D">
            <g id="applicant_1_icon-copy-3" transform="translate(195.000000, 318.000000)">
                <path d="M10.0325565,11.72 C11.1369794,11.72 12.359715,11.8799984 13.7008,12.2 C15.1996597,12.600002 16.4223953,13.1066636 17.3690435,13.72 C18.4734664,14.4666704 19.0256696,15.306662 19.0256696,16.24 L19.0256696,20 L1,20 L1,16.24 C1,15.306662 1.55220317,14.4666704 2.65662609,13.72 C3.6032743,13.1066636 4.8260099,12.600002 6.32486957,12.2 C7.66595453,11.8799984 8.90183782,11.72 10.0325565,11.72 Z M10.0325565,8.36 C9.29627458,8.36 8.61259446,8.1733352 7.98149565,7.8 C7.35039684,7.4266648 6.85078445,6.9200032 6.48264348,6.28 C6.11450251,5.6399968 5.93043478,4.9466704 5.93043478,4.2 C5.93043478,3.4533296 6.11450251,2.7600032 6.48264348,2.12 C6.85078445,1.4799968 7.35039684,0.9666686 7.98149565,0.58 C8.61259446,0.1933314 9.29627458,0 10.0325565,0 C10.7688385,0 11.4459447,0.1933314 12.0638957,0.58 C12.6818466,0.9666686 13.1748851,1.4799968 13.5430261,2.12 C13.9111671,2.7600032 14.0952348,3.4533296 14.0952348,4.2 C14.0952348,4.9466704 13.9111671,5.6333302 13.5430261,6.26 C13.1748851,6.8866698 12.6752727,7.3933314 12.0441739,7.78 C11.4130751,8.1666686 10.7425427,8.36 10.0325565,8.36 Z" id="supervisor_account---material"></path>
            </g>
        </g>
    </g>
</svg>