<?xml version="1.0" encoding="UTF-8"?>
<svg width="45px" height="47px" viewBox="0 0 45 47" version="1.1" xmlns="http://www.w3.org/2000/svg" xmlns:xlink="http://www.w3.org/1999/xlink">
    <!-- Generator: Sketch 41.2 (35397) - http://www.bohemiancoding.com/sketch -->
    <title>term_deposit_icon</title>
    <desc>Created with Sketch.</desc>
    <defs></defs>
    <g id="Page-1" stroke="none" stroke-width="1" fill="none" fill-rule="evenodd">
        <g id="OAO_Product_Listing_Design_1" transform="translate(-202.000000, -959.000000)" stroke="#044B8A" fill="#FFFFFF">
            <g id="Product_Box-Copy-4" transform="translate(149.000000, 920.000000)">
                <g id="Product_Title" transform="translate(38.000000, 25.000000)">
                    <path d="M39.3713294,15 C28.6057036,15 19.8477819,23.758466 19.8477819,34.5240917 C19.8477819,35.1347298 19.8869672,35.7350273 19.9446568,36.3304267 C17.5391128,37.1310048 16,38.5471192 16,40.2320884 L16,55.3930023 C16,58.019508 19.728049,60 24.6708432,60 C28.2231024,60 31.1402327,58.973562 32.5040999,57.4224759 C32.8344541,57.4415244 33.1675294,57.4583958 33.5109453,57.4583958 C37.7935755,57.4583958 41.1591602,55.9704417 41.9825964,53.8653186 C51.5176939,52.5841759 58.8954211,44.4026051 58.8954211,34.5235475 C58.8948769,23.758466 50.1369552,15 39.3713294,15 Z M31.7073315,55.3935465 C31.7073315,56.8004088 28.816869,58.3678221 24.670299,58.3678221 C20.5226404,58.3678221 17.6321779,56.8004088 17.6321779,55.3935465 L17.6321779,54.3540467 C19.1799985,55.4931426 21.7025543,56.2099076 24.670299,56.2099076 C27.6369552,56.2099076 30.1595109,55.4931426 31.7073315,54.3540467 L31.7073315,55.3935465 Z M31.7073315,51.6034541 C31.7073315,53.0103164 28.816869,54.5771854 24.670299,54.5771854 C20.5226404,54.5771854 17.6321779,53.0103164 17.6321779,51.6034541 L17.6321779,50.5634101 C19.1799985,51.7030502 21.7025543,52.4198152 24.670299,52.4198152 C27.6369552,52.4198152 30.1595109,51.7030502 31.7073315,50.5634101 L31.7073315,51.6034541 Z M31.7073315,47.8133617 C31.7073315,49.2196797 28.816869,50.787093 24.670299,50.787093 C20.5226404,50.787093 17.6321779,49.2196797 17.6321779,47.8133617 L17.6321779,46.7733177 C19.1799985,47.9124135 21.7025543,48.6297228 24.670299,48.6297228 C27.6369552,48.6297228 30.1595109,47.9124135 31.7073315,46.7733177 L31.7073315,47.8133617 Z M31.7073315,44.0227251 C31.7073315,45.4268661 28.6982246,46.9970006 24.670299,46.9970006 C20.5226404,46.9970006 17.6321779,45.4290431 17.6321779,44.0227251 L17.6321779,42.9832253 C19.1799985,44.1217769 21.7025543,44.8390862 24.670299,44.8390862 C27.6369552,44.8390862 30.1595109,44.1217769 31.7073315,42.9832253 L31.7073315,44.0227251 Z M24.670299,43.206364 C20.5226404,43.206364 17.6321779,41.6389507 17.6321779,40.2320884 C17.6321779,38.8257704 20.5226404,37.2578129 24.670299,37.2578129 C28.816869,37.2578129 31.7073315,38.8257704 31.7073315,40.2320884 C31.7073315,41.6367737 28.6982246,43.206364 24.670299,43.206364 Z M40.5479778,52.8519423 C40.5479778,54.2582604 37.6575154,55.8262179 33.5098568,55.8262179 C33.4385613,55.8262179 33.3716197,55.8207755 33.3014126,55.819687 C33.3237265,55.6792729 33.3395095,55.5377703 33.3395095,55.3935465 L33.3395095,53.6617725 C33.3961105,53.6634053 33.4510788,53.6683034 33.5098568,53.6683034 C36.4776015,53.6683034 39.0001572,52.9509941 40.5479778,51.8124426 L40.5479778,52.8519423 Z M40.5479778,49.0613057 C40.5479778,50.468168 37.6575154,52.0355812 33.5098568,52.0355812 C33.451623,52.0355812 33.3961105,52.0301388 33.3395095,52.0279619 L33.3395095,49.8733129 C33.3961105,49.8744013 33.4521673,49.8776668 33.5098568,49.8776668 C36.4776015,49.8776668 39.0001572,49.1609017 40.5479778,48.0218059 L40.5479778,49.0613057 Z M33.510401,48.2449446 C33.4532558,48.2449446 33.3977432,48.2416792 33.3400537,48.2405907 L33.3400537,42.3040129 C33.3982875,42.3029244 33.451623,42.2963935 33.510401,42.2963935 C37.6580596,42.2963935 40.5485221,43.864351 40.5485221,45.2712133 C40.5485221,46.6780756 37.6580596,48.2449446 33.510401,48.2449446 Z M42.1807,52.1906899 L42.1807,45.2712133 C42.1807,42.6447076 38.4526511,40.6636713 33.5098568,40.6636713 C33.4527115,40.6636713 33.397199,40.6691137 33.3395095,40.6691137 L33.3395095,40.2326327 C33.3395095,37.6061269 29.6114605,35.6256349 24.6697547,35.6256349 C23.553517,35.6256349 22.5053094,35.7312176 21.5425475,35.9178922 C21.5055392,35.4574646 21.4799598,34.9943157 21.4799598,34.524636 C21.4799598,24.6591844 29.5053336,16.6332664 39.3707852,16.6332664 C49.2362368,16.6332664 57.2616105,24.6591844 57.2616105,34.524636 C57.2621547,43.4333124 50.715483,50.8387959 42.1807,52.1906899 Z M40.1876905,20.233963 L38.5549683,20.233963 L38.5549683,35.3399086 L49.9742272,35.3399086 L49.9742272,33.7071864 L40.1876905,33.7071864 L40.1876905,20.233963 Z" id="term_deposit_icon"></path>
                </g>
            </g>
        </g>
    </g>
</svg>