<?xml version="1.0" encoding="UTF-8"?>
<svg width="18px" height="18px" viewBox="0 0 18 18" version="1.1" xmlns="http://www.w3.org/2000/svg" xmlns:xlink="http://www.w3.org/1999/xlink">
    <!-- Generator: Sketch 41.2 (35397) - http://www.bohemiancoding.com/sketch -->
    <title>help-outline - MaterialIcons-Regular</title>
    <desc>Created with Sketch.</desc>
    <defs></defs>
    <g id="Page-1" stroke="none" stroke-width="1" fill="none" fill-rule="evenodd">
        <g id="17_online-id-check-medicare" transform="translate(-702.000000, -646.000000)" fill="#90969D">
            <path d="M711,650 C711.911463,650 712.692705,650.325518 713.34375,650.976562 C713.994795,651.627607 714.320312,652.40885 714.320312,653.320312 C714.320312,654.023441 713.90365,654.74609 713.070312,655.488281 C712.236975,656.230472 711.820312,656.901039 711.820312,657.5 L710.179688,657.5 C710.179688,656.901039 710.309895,656.386721 710.570312,655.957031 C710.83073,655.527342 711.117186,655.214845 711.429688,655.019531 C711.742189,654.824218 712.028645,654.583335 712.289062,654.296875 C712.54948,654.010415 712.679688,653.684898 712.679688,653.320312 C712.679688,652.877602 712.510418,652.493491 712.171875,652.167969 C711.833332,651.842446 711.442711,651.679688 711,651.679688 C710.557289,651.679688 710.166668,651.842446 709.828125,652.167969 C709.489582,652.493491 709.320312,652.877602 709.320312,653.320312 L707.679688,653.320312 C707.679688,652.40885 708.005205,651.627607 708.65625,650.976562 C709.307295,650.325518 710.088537,650 711,650 L711,650 Z M711,661.679688 C712.822926,661.679688 714.391921,661.022142 715.707031,659.707031 C717.022142,658.391921 717.679688,656.822926 717.679688,655 C717.679688,653.177074 717.022142,651.608079 715.707031,650.292969 C714.391921,648.977858 712.822926,648.320312 711,648.320312 C709.177074,648.320312 707.608079,648.977858 706.292969,650.292969 C704.977858,651.608079 704.320312,653.177074 704.320312,655 C704.320312,656.822926 704.977858,658.391921 706.292969,659.707031 C707.608079,661.022142 709.177074,661.679688 711,661.679688 L711,661.679688 Z M711,646.679688 C713.291678,646.679688 715.251294,647.493481 716.878906,649.121094 C718.506519,650.748706 719.320312,652.708322 719.320312,655 C719.320312,657.291678 718.506519,659.251294 716.878906,660.878906 C715.251294,662.506519 713.291678,663.320312 711,663.320312 C708.708322,663.320312 706.748706,662.506519 705.121094,660.878906 C703.493481,659.251294 702.679688,657.291678 702.679688,655 C702.679688,652.708322 703.493481,650.748706 705.121094,649.121094 C706.748706,647.493481 708.708322,646.679688 711,646.679688 L711,646.679688 Z M710.179688,660 L710.179688,658.320312 L711.820312,658.320312 L711.820312,660 L710.179688,660 Z" id="help-outline---MaterialIcons-Regular"></path>
        </g>
    </g>
</svg>